<?xml version="1.0" encoding="UTF-8" standalone="no"?>
<!-- Created with Inkscape (http://www.inkscape.org/) -->

<svg
   xmlns:dc="http://purl.org/dc/elements/1.1/"
   xmlns:cc="http://creativecommons.org/ns#"
   xmlns:rdf="http://www.w3.org/1999/02/22-rdf-syntax-ns#"
   xmlns:svg="http://www.w3.org/2000/svg"
   xmlns="http://www.w3.org/2000/svg"
   xmlns:xlink="http://www.w3.org/1999/xlink"
   xmlns:sodipodi="http://sodipodi.sourceforge.net/DTD/sodipodi-0.dtd"
   xmlns:inkscape="http://www.inkscape.org/namespaces/inkscape"
   width="160"
   height="98"
   id="svg2863"
   version="1.1"
   inkscape:version="0.47 r22583"
   sodipodi:docname="car1.svg">
  <defs
     id="defs2865">
    <linearGradient
       inkscape:collect="always"
       id="linearGradient4583">
      <stop
         style="stop-color:#eeeeec;stop-opacity:1;"
         offset="0"
         id="stop4585" />
      <stop
         style="stop-color:#eeeeec;stop-opacity:0;"
         offset="1"
         id="stop4587" />
    </linearGradient>
    <linearGradient
       inkscape:collect="always"
       id="linearGradient4559">
      <stop
         style="stop-color:#2e3436;stop-opacity:1;"
         offset="0"
         id="stop4561" />
      <stop
         style="stop-color:#2e3436;stop-opacity:0;"
         offset="1"
         id="stop4563" />
    </linearGradient>
    <linearGradient
       inkscape:collect="always"
       id="linearGradient4551">
      <stop
         style="stop-color:#262b2d;stop-opacity:1"
         offset="0"
         id="stop4553" />
      <stop
         style="stop-color:#2e3436;stop-opacity:0;"
         offset="1"
         id="stop4555" />
    </linearGradient>
    <linearGradient
       inkscape:collect="always"
       id="linearGradient4476">
      <stop
         style="stop-color:#eeeeec;stop-opacity:1;"
         offset="0"
         id="stop4478" />
      <stop
         style="stop-color:#eeeeec;stop-opacity:0;"
         offset="1"
         id="stop4480" />
    </linearGradient>
    <linearGradient
       id="linearGradient4460">
      <stop
         style="stop-color:#2e3436;stop-opacity:1;"
         offset="0"
         id="stop4462" />
      <stop
         style="stop-color:#2e3436;stop-opacity:0;"
         offset="1"
         id="stop4464" />
    </linearGradient>
    <inkscape:perspective
       sodipodi:type="inkscape:persp3d"
       inkscape:vp_x="0 : 526.18109 : 1"
       inkscape:vp_y="0 : 1000 : 0"
       inkscape:vp_z="744.09448 : 526.18109 : 1"
       inkscape:persp3d-origin="372.04724 : 350.78739 : 1"
       id="perspective2871" />
    <clipPath
       clipPathUnits="userSpaceOnUse"
       id="clipPath4470">
      <rect
         ry="1.9184339"
         y="980.16071"
         x="13.893966"
         height="3.8368678"
         width="55.794453"
         id="rect4472"
         style="fill:#d3d7cf;fill-opacity:1;stroke:none"
         transform="scale(1,-1)" />
    </clipPath>
    <linearGradient
       inkscape:collect="always"
       xlink:href="#linearGradient4476"
       id="linearGradient4482"
       x1="41.791191"
       y1="-982.33929"
       x2="41.791191"
       y2="-983.99756"
       gradientUnits="userSpaceOnUse" />
    <linearGradient
       inkscape:collect="always"
       xlink:href="#linearGradient4476"
       id="linearGradient4498"
       gradientUnits="userSpaceOnUse"
       x1="41.791191"
       y1="-982.33929"
       x2="41.791191"
       y2="-983.99756" />
    <linearGradient
       inkscape:collect="always"
       xlink:href="#linearGradient4476"
       id="linearGradient4500"
       gradientUnits="userSpaceOnUse"
       x1="41.791191"
       y1="-982.33929"
       x2="41.791191"
       y2="-983.99756" />
    <linearGradient
       inkscape:collect="always"
       xlink:href="#linearGradient4476"
       id="linearGradient4502"
       gradientUnits="userSpaceOnUse"
       x1="41.791191"
       y1="-982.33929"
       x2="41.791191"
       y2="-983.99756" />
    <filter
       inkscape:collect="always"
       id="filter4504"
       x="-0.015827002"
       width="1.031654"
       y="-0.23015098"
       height="1.460302">
      <feGaussianBlur
         inkscape:collect="always"
         stdDeviation="0.36794121"
         id="feGaussianBlur4506" />
    </filter>
    <filter
       inkscape:collect="always"
       id="filter4508"
       x="-0.015827002"
       width="1.031654"
       y="-0.23015098"
       height="1.460302">
      <feGaussianBlur
         inkscape:collect="always"
         stdDeviation="0.36794121"
         id="feGaussianBlur4510" />
    </filter>
    <filter
       inkscape:collect="always"
       id="filter4512"
       x="-0.015827002"
       width="1.031654"
       y="-0.23015098"
       height="1.460302">
      <feGaussianBlur
         inkscape:collect="always"
         stdDeviation="0.36794121"
         id="feGaussianBlur4514" />
    </filter>
    <filter
       inkscape:collect="always"
       id="filter4516"
       x="-0.015827002"
       width="1.031654"
       y="-0.23015098"
       height="1.460302">
      <feGaussianBlur
         inkscape:collect="always"
         stdDeviation="0.36794121"
         id="feGaussianBlur4518" />
    </filter>
    <linearGradient
       inkscape:collect="always"
       xlink:href="#linearGradient4476"
       id="linearGradient4533"
       gradientUnits="userSpaceOnUse"
       x1="41.791191"
       y1="-982.33929"
       x2="41.791191"
       y2="-983.99756" />
    <linearGradient
       inkscape:collect="always"
       xlink:href="#linearGradient4476"
       id="linearGradient4535"
       gradientUnits="userSpaceOnUse"
       x1="41.791191"
       y1="-982.33929"
       x2="41.791191"
       y2="-983.99756" />
    <linearGradient
       inkscape:collect="always"
       xlink:href="#linearGradient4476"
       id="linearGradient4537"
       gradientUnits="userSpaceOnUse"
       x1="41.791191"
       y1="-982.33929"
       x2="41.791191"
       y2="-983.99756" />
    <linearGradient
       inkscape:collect="always"
       xlink:href="#linearGradient4476"
       id="linearGradient4539"
       gradientUnits="userSpaceOnUse"
       x1="41.791191"
       y1="-982.33929"
       x2="41.791191"
       y2="-983.99756" />
    <filter
       inkscape:collect="always"
       id="filter4541">
      <feGaussianBlur
         inkscape:collect="always"
         stdDeviation="0.23476209"
         id="feGaussianBlur4543" />
    </filter>
    <linearGradient
       inkscape:collect="always"
       xlink:href="#linearGradient4551"
       id="linearGradient4557"
       x1="1028.4006"
       y1="-53.796085"
       x2="1019.8896"
       y2="-53.796085"
       gradientUnits="userSpaceOnUse" />
    <linearGradient
       inkscape:collect="always"
       xlink:href="#linearGradient4559"
       id="linearGradient4565"
       x1="6.3947802"
       y1="1000.8043"
       x2="11.670474"
       y2="1000.8043"
       gradientUnits="userSpaceOnUse" />
    <filter
       inkscape:collect="always"
       id="filter4571"
       x="-0.12351097"
       width="1.2470219"
       y="-0.011290477"
       height="1.022581">
      <feGaussianBlur
         inkscape:collect="always"
         stdDeviation="0.2715025"
         id="feGaussianBlur4573" />
    </filter>
    <filter
       inkscape:collect="always"
       id="filter4579"
       x="-0.014292916"
       width="1.0285858"
       y="-0.1357109"
       height="1.2714218">
      <feGaussianBlur
         inkscape:collect="always"
         stdDeviation="0.4812687"
         id="feGaussianBlur4581" />
    </filter>
    <linearGradient
       inkscape:collect="always"
       xlink:href="#linearGradient4583"
       id="linearGradient4589"
       x1="975.12616"
       y1="-55.075047"
       x2="983.3175"
       y2="-55.075047"
       gradientUnits="userSpaceOnUse" />
    <filter
       inkscape:collect="always"
       id="filter4595"
       x="-0.014177635"
       width="1.0283553"
       y="-0.14706519"
       height="1.2941304">
      <feGaussianBlur
         inkscape:collect="always"
         stdDeviation="0.50194144"
         id="feGaussianBlur4597" />
    </filter>
    <linearGradient
       inkscape:collect="always"
       xlink:href="#linearGradient4583"
       id="linearGradient4601"
       gradientUnits="userSpaceOnUse"
       x1="975.12616"
       y1="-55.075047"
       x2="983.3175"
       y2="-55.075047" />
    <linearGradient
       inkscape:collect="always"
       xlink:href="#linearGradient4583"
       id="linearGradient4604"
       gradientUnits="userSpaceOnUse"
       x1="975.12616"
       y1="-55.075047"
       x2="985.05676"
       y2="-57.4589" />
    <linearGradient
       inkscape:collect="always"
       xlink:href="#linearGradient4551"
       id="linearGradient4608"
       gradientUnits="userSpaceOnUse"
       x1="1028.4006"
       y1="-53.796085"
       x2="1019.8896"
       y2="-53.796085" />
    <linearGradient
       inkscape:collect="always"
       xlink:href="#linearGradient4551"
       id="linearGradient4611"
       gradientUnits="userSpaceOnUse"
       x1="1028.5757"
       y1="-54.407101"
       x2="1019.8896"
       y2="-53.796085" />
    <filter
       inkscape:collect="always"
       id="filter4621">
      <feGaussianBlur
         inkscape:collect="always"
         stdDeviation="0.30533012"
         id="feGaussianBlur4623" />
    </filter>
  </defs>
  <sodipodi:namedview
     id="base"
     pagecolor="#ffffff"
     bordercolor="#666666"
     borderopacity="1.0"
     inkscape:pageopacity="0.0"
     inkscape:pageshadow="2"
     inkscape:zoom="6.075"
     inkscape:cx="80"
     inkscape:cy="49"
     inkscape:document-units="px"
     inkscape:current-layer="layer1"
     showgrid="false"
     inkscape:window-width="1440"
     inkscape:window-height="827"
     inkscape:window-x="0"
     inkscape:window-y="25"
     inkscape:window-maximized="1" />
  <metadata
     id="metadata2868">
    <rdf:RDF>
      <cc:Work
         rdf:about="">
        <dc:format>image/svg+xml</dc:format>
        <dc:type
           rdf:resource="http://purl.org/dc/dcmitype/StillImage" />
        <dc:title />
      </cc:Work>
    </rdf:RDF>
  </metadata>
  <g
     inkscape:label="Layer 1"
     inkscape:groupmode="layer"
     id="layer1"
     transform="translate(0,-954.36218)">
    <path
       transform="translate(0,954.36218)"
       style="fill:#555753;fill-opacity:1;stroke:none"
       d="m 7.9934746,14.228385 c 42.8983144,0 86.2316124,-1.074461 128.3752054,-0.319739 4.78697,-0.2347 7.34326,0.645935 10.55139,1.200653 1.79086,0.319739 3.677,2.365748 3.35726,5.115823 l 0.31974,54.672107 c 0,3.069814 -1.5664,4.156607 -3.83687,4.636216 -4.2099,1.428887 -5.54214,0.880914 -9.75204,1.360522 L 7.6737356,80.414359 c -1.15138,0 -2.0783033,-0.926924 -2.0783033,-2.078304 l 0.319739,-62.029367 c 0,-1.15138 0.9269233,-2.078303 2.0783033,-2.078303 z"
       id="rect3905"
       sodipodi:nodetypes="ccccccccccc" />
    <path
       sodipodi:nodetypes="ccccccccc"
       id="path4421"
       d="m 13.236868,971.70752 106.647212,0 c 1.44375,0 2.60604,0.99278 2.60604,2.22595 6.90916,21.45571 4.10704,40.00473 0,55.81983 0,1.2332 -1.16229,2.226 -2.60604,2.226 l -106.647212,0 c -1.443747,0 -2.60604,-0.9928 -2.60604,-2.226 l 0,-55.81983 c 0,-1.23317 1.162293,-2.22595 2.60604,-2.22595 z"
       style="fill:#2e3436;fill-opacity:1;stroke:#2e3436;stroke-width:1.15888166" />
    <path
       style="fill:#555753;fill-opacity:1;stroke:none"
       d="M 38.28125 14.375 C 37.174154 14.375 36.28125 15.267904 36.28125 16.375 L 36.28125 19.5 L 12 19.5 C 10.84862 19.5 9.90625 20.44237 9.90625 21.59375 L 9.90625 71.875 C 9.427141 72.239407 9.125 72.817681 9.125 73.46875 L 9.125 76.96875 C 9.125 78.075846 10.017904 78.96875 11.125 78.96875 C 12.232096 78.96875 13.09375 78.075846 13.09375 76.96875 L 13.09375 75.78125 L 36.125 75.78125 L 36.125 78.5625 C 36.125 79.669596 37.017904 80.5625 38.125 80.5625 C 39.232096 80.5625 40.125 79.669596 40.125 78.5625 L 40.125 75.78125 L 66.03125 75.78125 L 66.03125 78.09375 C 66.03125 79.200846 66.924154 80.09375 68.03125 80.09375 C 69.138346 80.09375 70.03125 79.200846 70.03125 78.09375 L 70.03125 75.78125 L 94.8125 75.78125 L 94.8125 78.25 C 94.8125 79.357096 95.705404 80.25 96.8125 80.25 C 97.919596 80.25 98.8125 79.357096 98.8125 78.25 L 98.8125 75.875 L 110.96875 79.03125 C 112.89877 78.732997 117.11113 78.330759 125.03125 77.78125 L 99.1875 73.4375 C 102.43283 58.725406 104.6043 41.514673 99.125 21.59375 C 99.125 21.583675 99.125141 21.57254 99.125 21.5625 L 125.1875 17.1875 C 117.2043 16.63361 112.96984 16.23642 111.0625 15.9375 L 98.96875 19.09375 L 98.96875 16.71875 C 98.96875 15.611654 98.075846 14.71875 96.96875 14.71875 C 95.861654 14.71875 94.96875 15.611654 94.96875 16.71875 L 94.96875 19.5 L 70.1875 19.5 L 70.1875 16.875 C 70.1875 15.767904 69.294596 14.875 68.1875 14.875 C 67.080404 14.875 66.1875 15.767904 66.1875 16.875 L 66.1875 19.5 L 40.28125 19.5 L 40.28125 16.375 C 40.28125 15.267904 39.388346 14.375 38.28125 14.375 z M 111.0625 15.9375 L 114 15.1875 C 110.51771 15.282859 108.2883 15.502725 111.0625 15.9375 z M 114 15.1875 C 121.353 14.986146 133.9239 15.269543 114.9375 14.9375 L 114 15.1875 z M 110.96875 79.03125 C 108.123 79.471014 110.34082 79.654164 113.84375 79.75 L 110.96875 79.03125 z M 113.84375 79.75 L 114.78125 80 C 133.765 79.667953 121.19718 79.951181 113.84375 79.75 z "
       transform="translate(0,954.36218)"
       id="rect4418" />
    <rect
       style="fill:#555753;fill-opacity:1;stroke:none"
       id="rect4423"
       width="3.9967375"
       height="7.5138664"
       x="8.7928228"
       y="970.18927"
       ry="1.9983687" />
    <path
       style="fill:#d3d7cf;fill-opacity:1;stroke:none"
       d="m 141.4845,970.66887 c -1.54596,-1.49154 4.19041,-1.40503 6.39478,0.79935 2.20438,2.20437 1.27599,11.43024 0.95922,10.55138 -1.52579,-4.23317 -2.23536,-6.4123 -7.354,-11.35073 z"
       id="rect4445"
       sodipodi:nodetypes="czss" />
    <path
       sodipodi:nodetypes="czss"
       id="path4448"
       d="m 141.96411,1032.7099 c -1.54596,1.4916 4.19041,1.4051 6.39478,-0.7993 2.20438,-2.2044 1.27599,-11.4302 0.95922,-10.5514 -1.52579,4.2332 -2.23536,6.4123 -7.354,11.3507 z"
       style="fill:#d3d7cf;fill-opacity:1;stroke:none" />
    <rect
       style="fill:#2e3436;fill-opacity:1;stroke:none"
       id="rect4450"
       width="17.905382"
       height="38.528549"
       x="75.618263"
       y="982.49921"
       ry="3.5171289" />
    <g
       id="g4527"
       transform="translate(0.31973899,1.7585644)">
      <rect
         clip-path="url(#clipPath4470)"
         transform="matrix(1,0,0,-2.0009393,-0.41496282,-983.36568)"
         ry="1.9184339"
         y="-986.17615"
         x="13.893966"
         height="3.8368678"
         width="55.794453"
         id="rect4452"
         style="opacity:0.35087717;fill:url(#linearGradient4533);fill-opacity:1;stroke:none;filter:url(#filter4504)" />
      <rect
         style="opacity:0.35087717;fill:url(#linearGradient4535);fill-opacity:1;stroke:none;filter:url(#filter4516)"
         id="rect4492"
         width="55.794453"
         height="3.8368678"
         x="13.893966"
         y="-986.17615"
         ry="1.9184339"
         transform="matrix(1,0,0,-2.0009393,-0.41496282,-950.23831)"
         clip-path="url(#clipPath4470)" />
      <rect
         clip-path="url(#clipPath4470)"
         transform="matrix(1,0,0,-2.0009393,-0.41496282,-961.28076)"
         ry="1.9184339"
         y="-986.17615"
         x="13.893966"
         height="3.8368678"
         width="55.794453"
         id="rect4494"
         style="opacity:0.35087717;fill:url(#linearGradient4537);fill-opacity:1;stroke:none;filter:url(#filter4512)" />
      <rect
         style="opacity:0.35087717;fill:url(#linearGradient4539);fill-opacity:1;stroke:none;filter:url(#filter4508)"
         id="rect4496"
         width="55.794453"
         height="3.8368678"
         x="13.893966"
         y="-986.17615"
         ry="1.9184339"
         transform="matrix(1,0,0,-2.0009393,-0.41496282,-972.32322)"
         clip-path="url(#clipPath4470)" />
    </g>
    <path
       style="opacity:0.46052631999999999;fill:#eeeeec;fill-opacity:1;stroke:none;filter:url(#filter4541)"
       d="m 102.50817,976.48421 c 0,0 3.03592,8.71261 3.03592,8.71261 0,0 2.2471,-3.90771 2.2471,-3.90771 0,0 4.4396,18.3038 4.4396,18.3038 0,0 1.83382,-5.54323 4.78606,-11.47088 0.95862,8.27318 0.1295,15.23907 1.14025,23.35527 0,0 4.96342,-4.8312 4.96342,-4.8312 0,0 -4.27736,21.8455 -4.27736,21.8455 0,0 0.14762,-13.5698 0.14762,-13.5698 0,0 -3.71881,4.0018 -3.71881,4.0018 -0.16289,0 0.3047,-15.458 0.40359,-20.41748 -2.0542,3.60208 -6.07503,12.46358 -6.07503,12.46358 0,0 -1.50287,-13.72427 -2.24919,-21.03881 -1.29527,3.46929 -2.15737,6.63715 -2.15737,6.63715 0,0 -2.6858,-20.08383 -2.6858,-20.08383 z"
       id="path4520"
       sodipodi:nodetypes="ccccccccccccccc" />
    <rect
       style="opacity:0.96052635;fill:url(#linearGradient4565);fill-opacity:1;stroke:none;filter:url(#filter4571)"
       id="rect4545"
       width="5.2756934"
       height="57.712887"
       x="6.3947802"
       y="971.94781"
       ry="1.7585645"
       transform="matrix(1,0,0,1.1029387,0,-102.38202)" />
    <rect
       ry="2.5890834"
       transform="matrix(0,1.1357299,-1.0164052,0,-0.18410559,-132.19031)"
       y="-97.559547"
       x="975.12616"
       height="84.969002"
       width="8.19133"
       id="rect4547"
       style="opacity:0.21929824;fill:url(#linearGradient4589);fill-opacity:1;stroke:none;filter:url(#filter4595)" />
    <rect
       style="opacity:0.46052629;fill:url(#linearGradient4557);fill-opacity:1;stroke:none;filter:url(#filter4579)"
       id="rect4549"
       width="8.5110693"
       height="80.812401"
       x="1019.8896"
       y="-94.202286"
       transform="matrix(0,1,-1.0480825,0,-0.58828173,0)"
       ry="2.4624276" />
    <path
       transform="matrix(0,1.1357299,-0.32350161,0,116.57841,-137.62241)"
       style="opacity:0.21929824000000001;fill:url(#linearGradient4604);fill-opacity:1;stroke:none;filter:url(#filter4595)"
       d="m 977.71524,-97.559547 3.01317,0 c 1.43435,0 7.51693,-3.424783 7.51693,-1.990435 l -1.01456,65.03461 c 0,1.434352 -4.34334,7.168601 -5.77769,7.168601 l -3.88279,5.088353 c -1.43435,0 -2.44414,8.513141 -2.44414,7.078789 l 0.43481,-77.246658 c 0,-1.434352 0.71992,-5.13326 2.15427,-5.13326 z"
       id="rect4599"
       sodipodi:nodetypes="ccccccccc" />
    <path
       transform="matrix(0,1.7783447,-0.26940222,0,117.18644,-795.90334)"
       style="opacity:0.5;fill:url(#linearGradient4611);fill-opacity:1;stroke:none;filter:url(#filter4621)"
       d="m 1021.5189,-121.08699 4.4193,17.10845 c 1.3642,0 2.5551,15.762625 2.5551,17.12681 l -0.093,70.999417 c 0,1.364185 -1.8388,-11.590939 -3.203,-11.590939 l -4.2341,-7.943207 c -1.3642,0 -5.1468,-30.427009 -3.9435,-4.906492 l 0.5554,-63.056209 c 0,-1.36419 2.5792,-17.73783 3.9434,-17.73783 z"
       id="rect4606"
       sodipodi:nodetypes="ccccccccc" />
  </g>
</svg>
