<?xml version="1.0" encoding="UTF-8" standalone="no"?>
<!-- Created with Inkscape (http://www.inkscape.org/) -->

<svg
   xmlns:dc="http://purl.org/dc/elements/1.1/"
   xmlns:cc="http://creativecommons.org/ns#"
   xmlns:rdf="http://www.w3.org/1999/02/22-rdf-syntax-ns#"
   xmlns:svg="http://www.w3.org/2000/svg"
   xmlns="http://www.w3.org/2000/svg"
   xmlns:sodipodi="http://sodipodi.sourceforge.net/DTD/sodipodi-0.dtd"
   xmlns:inkscape="http://www.inkscape.org/namespaces/inkscape"
   width="128"
   height="128"
   id="svg2"
   version="1.1"
   inkscape:version="0.47 r22583"
   sodipodi:docname="New document 1">
  <defs
     id="defs4">
    <inkscape:perspective
       sodipodi:type="inkscape:persp3d"
       inkscape:vp_x="0 : 526.18109 : 1"
       inkscape:vp_y="0 : 1000 : 0"
       inkscape:vp_z="744.09448 : 526.18109 : 1"
       inkscape:persp3d-origin="372.04724 : 350.78739 : 1"
       id="perspective10" />
  </defs>
  <sodipodi:namedview
     id="base"
     pagecolor="#ffffff"
     bordercolor="#666666"
     borderopacity="1.0"
     inkscape:pageopacity="0.0"
     inkscape:pageshadow="2"
     inkscape:zoom="4.7890625"
     inkscape:cx="72.798895"
     inkscape:cy="94.044825"
     inkscape:document-units="px"
     inkscape:current-layer="layer1"
     showgrid="false"
     inkscape:window-width="1440"
     inkscape:window-height="827"
     inkscape:window-x="0"
     inkscape:window-y="25"
     inkscape:window-maximized="1" />
  <metadata
     id="metadata7">
    <rdf:RDF>
      <cc:Work
         rdf:about="">
        <dc:format>image/svg+xml</dc:format>
        <dc:type
           rdf:resource="http://purl.org/dc/dcmitype/StillImage" />
        <dc:title></dc:title>
      </cc:Work>
    </rdf:RDF>
  </metadata>
  <g
     inkscape:label="Layer 1"
     inkscape:groupmode="layer"
     id="layer1"
     transform="translate(0,-924.36218)">
    <g
       id="g3637"
       transform="translate(-0.62642741,-30.068515)">
      <rect
         ry="0"
         y="963.61829"
         x="8.9787922"
         height="42.179447"
         width="112.54813"
         id="rect2816"
         style="fill:#4e9a06;fill-opacity:1;stroke:none" />
      <path
         sodipodi:nodetypes="ccccczscz"
         id="rect3592"
         d="m 24.016151,975.10278 c 3.02647,-3.02647 2.920227,-9.60522 2.920227,-9.60522 l 89.576022,0 0,38.42084 c -31.807559,0 -66.480088,0 -95.422677,0 -0.520571,-2.6854 -1.250596,-3.1784 -2.711418,-4.5938 -1.460823,-1.41544 -4.384992,0.6941 -4.384992,-1.2528 0,-6.47349 0,-12.91087 0,-19.83686 0,0 6.996369,-0.10569 10.022838,-3.13216 z"
         style="fill:#73d216;fill-opacity:1;stroke:none" />
      <path
         transform="matrix(1.3115942,0,0,1.3115942,-18.500793,902.65057)"
         d="m 77.259381,62.642742 c 0,7.957225 -6.403862,14.40783 -14.303425,14.40783 -7.899564,0 -14.303426,-6.450605 -14.303426,-14.40783 0,-7.957225 6.403862,-14.40783 14.303426,-14.40783 7.899563,0 14.303425,6.450605 14.303425,14.40783 z"
         sodipodi:ry="14.40783"
         sodipodi:rx="14.303426"
         sodipodi:cy="62.642742"
         sodipodi:cx="62.955956"
         id="path3595"
         style="fill:#73d216;fill-opacity:1;stroke:#4e9a06"
         sodipodi:type="arc" />
      <g
         transform="matrix(0.8348615,0,0,0.8348615,25.13905,126.49693)"
         id="g3611">
        <path
           style="fill:#73d216;fill-opacity:1;stroke:#4e9a06;stroke-width:1;stroke-linecap:square;stroke-linejoin:miter;stroke-miterlimit:4;stroke-opacity:1;stroke-dashoffset:0"
           d="m 42.597061,1031.4813 10.649266,0 c 0.02069,6.3167 -0.689346,12.8246 2.50571,16.496 -5.437732,0.6438 -10.965106,2.1839 -15.869495,-2.5057 3.4793,-4.3159 2.316852,-8.1336 2.714519,-13.9903 z"
           id="rect3608"
           sodipodi:nodetypes="ccccc" />
        <path
           style="fill:#4e9a06;stroke:#4e9a06;stroke-width:1px;stroke-linecap:butt;stroke-linejoin:miter;stroke-opacity:1"
           d="m 41.553018,86.8646 c -1.752114,-0.700845 14.082301,-4.598727 16.70473,8.143556 2.282684,11.091464 0.417619,14.616634 3.132138,13.572594 7.117899,-0.30944 -6.543934,7.31022 -5.637847,-0.83523 1.477267,-3.69884 -1.332189,-16.3331 -5.637847,-17.539973 -4.759063,-1.333963 -8.769983,-0.964383 -8.561174,-3.340947 z"
           id="path3604"
           transform="translate(0,924.36218)"
           sodipodi:nodetypes="csccsc" />
        <path
           transform="translate(0,924.36218)"
           style="fill:#73d216;fill-opacity:1;stroke:#4e9a06;stroke-width:1;stroke-linecap:square;stroke-linejoin:miter;stroke-miterlimit:4;stroke-opacity:1;stroke-dashoffset:0"
           d="m 56.796083,100.01958 c 0,6.45803 -2.316713,13.53331 -8.769983,13.7814 -5.088615,0.19563 -10.48599,-5.71906 -12.946167,-12.52855 -2.194382,-6.07379 3.564801,-12.946165 10.022839,-12.946165 6.458037,0 11.693311,5.235274 11.693311,11.693315 z"
           id="path3599"
           sodipodi:nodetypes="csssc" />
        <path
           style="fill:#4e9a06;stroke:#4e9a06;stroke-width:1px;stroke-linecap:butt;stroke-linejoin:miter;stroke-opacity:1"
           d="m 48.652528,87.282219 c -0.826303,-4.133465 -8.788466,-2.828226 -14.40783,3.549755 -3.80796,4.322036 -3.857963,12.192926 -0.208809,15.451876 6.549913,8.63007 -1.600593,6.42527 -1.461664,7.09951 0,0 5.138248,6.46701 8.561175,2.50571 3.138415,-3.63204 0.305253,-5.65652 -2.296901,-7.93475 -4.172231,-3.65284 -4.359314,-14.475035 2.2969,-17.331155 3.400296,-1.459036 7.725938,-1.461664 7.517129,-3.340946 z"
           id="path3606"
           transform="translate(0,924.36218)"
           sodipodi:nodetypes="csccsssc" />
      </g>
      <text
         sodipodi:linespacing="100%"
         id="text3617"
         y="971.94995"
         x="10.887745"
         style="font-size:6.56455994px;font-style:normal;font-variant:normal;font-weight:normal;font-stretch:normal;text-align:start;line-height:100%;writing-mode:lr-tb;text-anchor:start;fill:#8ae234;fill-opacity:1;stroke:none;font-family:Nimbus Roman No9 L;-inkscape-font-specification:Nimbus Roman No9 L"
         xml:space="preserve"><tspan
           y="971.94995"
           x="10.887745"
           id="tspan3619"
           sodipodi:role="line">1000</tspan></text>
      <path
         transform="matrix(0,-1,1,0,29.859712,968.21209)"
         d="m -9.8140297,67.340942 c 0,5.708444 -2.9448413,10.336052 -6.5774883,10.336052 -3.632646,0 -6.577488,-4.627608 -6.577488,-10.336052 0,-5.708443 2.944842,-10.336052 6.577488,-10.336052 3.632647,0 6.5774883,4.627609 6.5774883,10.336052 z"
         sodipodi:ry="10.336052"
         sodipodi:rx="6.5774879"
         sodipodi:cy="67.340942"
         sodipodi:cx="-16.391518"
         id="path3625"
         style="fill:#4e9a06;fill-opacity:1;stroke:#4e9a06;stroke-width:1;stroke-linecap:square;stroke-linejoin:miter;stroke-miterlimit:4;stroke-opacity:1;stroke-dasharray:none;stroke-dashoffset:0"
         sodipodi:type="arc" />
      <text
         xml:space="preserve"
         style="font-size:9.13968563px;font-style:normal;font-variant:normal;font-weight:normal;font-stretch:normal;text-align:start;line-height:100%;writing-mode:lr-tb;text-anchor:start;fill:#8ae234;fill-opacity:1;stroke:none;font-family:Nimbus Roman No9 L;-inkscape-font-specification:Nimbus Roman No9 L"
         x="87.652473"
         y="987.36578"
         id="text3621"
         sodipodi:linespacing="100%"><tspan
           sodipodi:role="line"
           id="tspan3623"
           x="87.652473"
           y="987.36578">1000</tspan></text>
      <path
         id="path3627"
         d="m 15.092,996.23407 c 0.03901,-0.0392 0.08257,-0.0739 0.117037,-0.11704 0.04393,-0.055 0.07616,-0.11829 0.117037,-0.17554 0.169572,-0.23735 0.36486,-0.45947 0.526666,-0.70219 0.06309,-0.0947 0.114492,-0.19667 0.175556,-0.29265 0.151035,-0.23729 0.320708,-0.46261 0.468148,-0.70219 0.247134,-0.40158 0.455088,-0.82729 0.702222,-1.22887 0.07372,-0.11979 0.166718,-0.22761 0.234074,-0.35113 0.06425,-0.11776 0.154844,-0.38168 0.175555,-0.52666 0.0083,-0.0582 0,-0.11704 0,-0.17553 0,-0.0393 0.02164,-0.0846 0,-0.11705 -0.05064,-0.076 -0.164014,-0.0589 -0.234074,-0.0589 -0.03901,0 -0.07878,-0.008 -0.117037,0 -0.06048,0.0124 -0.122662,0.0268 -0.175555,0.0589 -0.04731,0.0281 -0.07396,0.0826 -0.117037,0.11705 -0.01264,0.01 -0.347864,0.23016 -0.351111,0.23402 -0.05585,0.0671 -0.0708,0.16016 -0.117037,0.23409 -0.05169,0.0827 -0.117037,0.15603 -0.175556,0.23408 -0.05851,0.11705 -0.109623,0.23808 -0.175555,0.35113 -0.07088,0.1215 -0.171169,0.22526 -0.234074,0.35107 -0.07453,0.1491 -0.113659,0.31345 -0.175555,0.46818 -0.05517,0.13791 -0.120384,0.2717 -0.175556,0.40962 -0.167056,0.41766 -0.316337,0.83533 -0.351111,1.28741 -0.009,0.11672 0,0.23409 0,0.35113 0,0.1423 -0.03084,0.33406 0.05852,0.46811 0.03837,0.0576 0.190092,0.21702 0.292593,0.23409 0.07696,0.0131 0.156049,0 0.234074,0 0.05852,0 0.118784,0.0144 0.175555,0 0.101907,-0.0255 0.195061,-0.078 0.292592,-0.11704 0.09753,-0.0393 0.202518,-0.0628 0.292592,-0.11705 0.107102,-0.0641 0.191582,-0.16061 0.292593,-0.23408 0.113757,-0.0827 0.238582,-0.14963 0.351111,-0.23403 0.304714,-0.22852 0.381322,-0.3228 0.643703,-0.58521 0.210854,-0.21087 0.291395,-0.27413 0.468148,-0.52667 0.119648,-0.17089 0.308178,-0.48754 0.351111,-0.7022 0.0076,-0.0386 -0.01745,-0.0822 0,-0.11704 0.0087,-0.0177 0.05852,-0.0196 0.05852,0 0,0.0275 -0.04322,0.0353 -0.05852,0.0582 -0.04839,0.0726 -0.07216,0.15931 -0.117036,0.23409 -0.03619,0.0602 -0.08933,0.11089 -0.117038,0.17553 -0.04503,0.10507 -0.08926,0.43409 -0.117037,0.52666 -0.03019,0.10062 -0.0894,0.1913 -0.117037,0.29264 -0.03122,0.11443 -0.03729,0.23435 -0.05852,0.35107 -0.01779,0.0979 -0.03901,0.1951 -0.05851,0.29264 -0.03839,0.19196 -0.08631,0.3321 -0.05852,0.52667 0.0087,0.0608 0.03901,0.11704 0.05852,0.17553 0.0195,0.0582 0.02151,0.1262 0.05851,0.17553 0.02617,0.0347 0.07803,0.0393 0.117038,0.0589 0.03901,0.0196 0.07342,0.0582 0.117036,0.0582 0.06168,0 0.114711,-0.0484 0.175556,-0.0582 0.05772,-0.01 0.12004,0.0183 0.175556,0 0.06672,-0.0223 0.110911,-0.0894 0.175555,-0.11705 0.07392,-0.0314 0.160151,-0.0268 0.234074,-0.0589 0.06464,-0.0275 0.117037,-0.078 0.175556,-0.11698 0.117036,-0.0781 0.238581,-0.14969 0.35111,-0.23409 0.02828,-0.0209 0.122023,-0.17056 0.175556,-0.11704 0.02758,0.0275 -0.01744,0.0821 0,0.11704 0.194081,0.19405 -0.02758,-0.0549 0.05851,0.11705 0.01234,0.0249 0.03901,0.0393 0.05852,0.0582 0.0195,0.0196 0.03556,0.0432 0.05851,0.0589 0.03629,0.0242 0.08075,0.034 0.117037,0.0582 0.02295,0.015 0.03235,0.0497 0.05852,0.0582 0.03701,0.0124 0.07919,-0.009 0.117037,0 0.08463,0.0209 0.149444,0.0959 0.234074,0.11705 0.03785,0.009 0.07802,0 0.117037,0 0.05852,0 0.117037,0 0.175555,0 0.08875,0 0.38958,0.0131 0.468148,0 0.06085,-0.01 0.114711,-0.0484 0.175556,-0.0582 0.05772,-0.01 0.117037,0 0.175555,0 0.05852,0 0.117037,0 0.175556,0 0.04791,0 0.254677,-0.0124 0.292592,0 0.105915,-0.0353 0.108834,0.0948 0.175556,0.11704 0.03701,0.0124 0.08003,-0.0124 0.117037,0 0.02617,0.009 0.03556,0.0432 0.05852,0.0582 0.03629,0.0242 0.07802,0.0393 0.117036,0.0589 0.03901,0.0196 0.07427,0.0497 0.117037,0.0582 0.05738,0.0118 0.118174,-0.0118 0.175556,0 0.04277,0.009 0.07427,0.0497 0.117036,0.0589 0.05738,0.0111 0.117038,0 0.175556,0 0.05852,0 0.117037,0 0.175556,0 0.05852,0 0.117037,0 0.175555,0 0.03901,0 0.07878,0.008 0.117037,0 0.06048,-0.0124 0.117038,-0.0392 0.175555,-0.0589 0.22193,-0.074 0.270779,-0.10246 0.468148,-0.23409 0.05852,-0.0393 0.121527,-0.072 0.175556,-0.11704 0.182282,-0.15185 0.326327,-0.36304 0.409629,-0.58516 0.08691,-0.23173 0.05852,-0.32228 0.05852,-0.58515 0,-0.13654 0.0097,-0.27347 0,-0.40969 -0.0098,-0.13752 -0.04141,-0.27275 -0.05852,-0.40962 -0.02191,-0.17527 -0.03097,-0.35218 -0.05851,-0.52666 -0.03102,-0.19647 -0.07606,-0.39052 -0.117037,-0.58515 -0.08675,-0.41211 -0.115463,-0.61525 -0.292592,-0.99484 -0.0665,-0.1425 -0.151653,-0.2757 -0.234074,-0.40963 -0.211783,-0.34413 -0.241687,-0.40589 -0.585185,-0.6437 -0.37826,-0.2619 -0.486408,-0.25967 -0.936296,-0.40962 -0.698117,-0.23272 -0.357919,-0.16226 -1.111851,-0.23409 -0.214482,-0.0203 -0.429221,-0.038 -0.643703,-0.0582 -0.195152,-0.0183 -0.389151,-0.0589 -0.585185,-0.0589 -0.372834,0 -0.809296,0.0996 -1.170371,0.1756 -0.17598,0.0373 -0.356056,0.0602 -0.526666,0.11704 -0.337759,0.11253 -0.70578,0.32019 -0.994814,0.52667 -0.430818,0.30769 -0.822967,0.73929 -0.877778,1.28735 -0.0097,0.0971 -0.02116,0.19738 0,0.29264 0.01893,0.0851 0.0708,0.16009 0.117037,0.23402 0.146076,0.23376 0.205889,0.29042 0.468148,0.40969 0.285988,0.12993 0.44809,0.13386 0.760741,0.17553 0.433812,0.0576 0.543675,0.0835 0.994814,0.0582 0.176364,-0.01 0.350275,-0.0491 0.526667,-0.0582 0.665643,-0.0353 0.478409,0.053 1.111851,-0.0589 1.494098,-0.26366 -0.541152,-0.0111 0.936296,-0.11698 0.11835,-0.009 0.232869,-0.0484 0.351111,-0.0589 0.116632,-0.01 0.234073,0 0.351111,0 0.09753,0 0.195061,0 0.292592,0 0.07802,0 0.157111,-0.0131 0.234074,0 0.04302,0.007 0.07803,0.0392 0.117037,0.0589 0.14171,0.0709 0.0862,0.0275 0.175556,0.11698 0.0195,0.0196 0.04618,0.034 0.05852,0.0589 0.0087,0.0177 -0.0061,0.0399 0,0.0582 0.01379,0.0412 0.04472,0.0757 0.05851,0.11704 0.01635,0.0491 -0.01939,0.19529 0,0.23409 0.01234,0.0249 0.04979,0.0321 0.05851,0.0582 0.01234,0.0373 0,0.078 0,0.11704 0,0.0196 -0.0087,0.0412 0,0.0589 0.01234,0.0249 0.04618,0.034 0.05852,0.0582 0.0087,0.0177 -0.01379,0.0445 0,0.0589 0.01379,0.0137 0.04107,-0.008 0.05852,0 0.07022,0.0353 0.105333,0.1404 0.175555,0.17553 0.01744,0.009 0.04472,-0.0137 0.05851,0 0.01379,0.0137 -0.0087,0.0412 0,0.0582 0.03899,0.078 0.07804,0.0393 0.117037,0.11705 0.0087,0.0177 -0.0087,0.0412 0,0.0589 0.07147,0.14295 0.04557,-0.0262 0.117037,0.11704 0.0087,0.0177 -0.0087,0.0412 0,0.0582 0.01234,0.0249 0.04618,0.034 0.05852,0.0589 0.0087,0.0177 -0.0087,0.0412 0,0.0582 0.01234,0.0249 0.03901,0.0393 0.05852,0.0582 0.0195,0.0196 0.03235,0.0497 0.05852,0.0582 0.03701,0.0124 0.07803,0 0.117037,0 0.0195,0 0.04001,0.007 0.05851,0 0.04138,-0.0137 0.07472,-0.0478 0.117038,-0.0582 0.03785,-0.009 0.07919,0.009 0.117036,0 0.116212,-0.0288 0.234901,-0.14655 0.351112,-0.1756 0.03785,-0.009 0.08003,0.0124 0.117037,0 0.02617,-0.009 0.03384,-0.0464 0.05852,-0.0582 0.01201,-0.007 0.167302,-0.009 0.175555,0 0.01379,0.0137 0,0.0393 0,0.0582 0,0.0196 0.0087,0.0412 0,0.0589 -0.01234,0.0249 -0.04618,0.034 -0.05851,0.0582 -0.0025,0.007 -0.0025,0.22911 0,0.23408 0.01234,0.0249 0.03384,0.0465 0.05851,0.0582 0.01745,0.009 0.03901,0 0.05852,0 0.0195,0 0.03901,0 0.05851,0 0.03901,0 0.07803,0 0.117038,0 0.03901,0 0.07919,0.009 0.117037,0 0.04232,-0.0105 0.07654,-0.0425 0.117036,-0.0582 0.05727,-0.0229 0.120384,-0.0308 0.175556,-0.0589 0.06291,-0.0314 0.11265,-0.0856 0.175556,-0.11698 0.05517,-0.0275 0.118283,-0.0353 0.175555,-0.0582 0.156049,-0.0622 0.09851,-0.0782 0.292592,-0.11705 0.03825,-0.008 0.07919,0.009 0.117037,0 0.04232,-0.0105 0.07472,-0.0478 0.117037,-0.0582 0.05677,-0.0144 0.117038,0 0.175556,0 0.0195,0 0.04472,-0.0137 0.05852,0 0.01379,0.0137 -0.0087,0.0412 0,0.0582 0.06469,0.12941 0.03632,0.0183 0.117036,0.0589 0.02467,0.0124 0.03235,0.0497 0.05852,0.0582 0.03701,0.0124 0.07802,0 0.117037,0 0.117036,0 0.234074,0 0.351111,0 0.623083,0 -0.211538,0.015 0.526666,-0.0582 0.09705,-0.01 0.195658,0.0105 0.292593,0 0.07993,-0.009 0.155563,-0.0412 0.234073,-0.0589 0.09709,-0.0216 0.193739,-0.0478 0.292593,-0.0582 0.07755,-0.009 0.156049,0 0.234074,0 0.07802,0 0.156049,0 0.234074,0 0.122193,0 0.228917,0 0.351111,0 0.03901,0 0.07919,-0.009 0.117037,0 0.04232,0.0105 0.07472,0.0477 0.117037,0.0582 0.03785,0.009 0.08003,-0.0124 0.117037,0 0.05234,0.0177 0.06769,0.0924 0.117036,0.11705 0.01745,0.009 0.04001,-0.007 0.05852,0 0.04138,0.0137 0.07803,0.0393 0.117037,0.0582 0.09551,0.0478 0.184125,0.0989 0.292593,0.11698 0.05772,0.01 0.117832,-0.01 0.175555,0 0.118767,0.0196 0.232343,0.0973 0.35111,0.11705 0.05772,0.01 0.118174,-0.0111 0.175556,0 0.04277,0.008 0.07427,0.0497 0.117037,0.0589 0.05738,0.0111 0.118785,-0.0144 0.175556,0 0.02676,0.007 0.03235,0.0497 0.05851,0.0582 0.266394,0 0.0033,-0.0275 0.175556,0.0589 0.03489,0.0177 0.08945,-0.0275 0.117037,0 0.02758,0.0275 -0.01745,0.0821 0,0.11704 0.03922,0.0784 0.07782,0.0386 0.117037,0.11698 0.04036,0.0807 -0.07087,0.0523 0.05852,0.11704 0.01745,0.009 0.04472,-0.0137 0.05851,0 0.01379,0.0137 -0.01379,0.0445 0,0.0589 0.01379,0.0137 0.04107,-0.009 0.05852,0 0.02467,0.0124 0.03384,0.0465 0.05851,0.0582 0.01745,0.009 0.03901,0 0.05851,0 0.0195,0 0.04107,0.009 0.05852,0 0.02467,-0.0124 0.03556,-0.0432 0.05852,-0.0582 0.03629,-0.0242 0.07803,-0.0393 0.117037,-0.0589 0.03901,-0.0392 0.07395,-0.0826 0.117037,-0.11704 0.460726,-0.36853 -0.151033,0.16644 0.409629,-0.23402 0.06734,-0.0484 0.117037,-0.11705 0.175556,-0.1756 0.05851,-0.0582 0.117037,-0.11705 0.175555,-0.17553 0.211865,-0.21185 0.248455,-0.22637 0.40963,-0.46818 0.06309,-0.0946 0.105726,-0.20281 0.175555,-0.29258 0.06774,-0.0871 0.162263,-0.15028 0.234074,-0.23408 0.04577,-0.0537 0.06731,-0.12581 0.117037,-0.17554 0.04973,-0.0497 0.120637,-0.0731 0.175556,-0.11704 0.04308,-0.0347 0.07802,-0.078 0.117037,-0.11704 0.0195,-0.0196 0.03901,-0.078 0.05851,-0.0582 0.0195,0.0196 -0.04322,0.0353 -0.05851,0.0582 -0.02419,0.036 -0.04232,0.0765 -0.05852,0.11704 -0.101294,0.25326 -0.01933,0.15571 -0.175555,0.46817 -0.05087,0.10174 -0.13181,0.18758 -0.175556,0.29258 -0.05462,0.13111 -0.06927,0.27589 -0.117037,0.40962 -0.04996,0.13988 -0.120384,0.27171 -0.175555,0.40962 -0.0619,0.15473 -0.119502,0.31123 -0.175556,0.46818 -0.109927,0.30775 -0.13968,0.37933 -0.175555,0.7022 -0.01118,0.10055 -0.0067,0.26411 0.05851,0.35113 0.02617,0.0347 0.08075,0.0347 0.117037,0.0582 0.02295,0.015 0.03234,0.0497 0.05851,0.0589 0.03701,0.0124 0.07803,0 0.117037,0 0.03901,0 0.07919,0.009 0.117037,0 0.04232,-0.0105 0.07803,-0.0393 0.117037,-0.0589 0.12155,-0.0608 0.174899,-0.0814 0.292592,-0.17553 0.04308,-0.0347 0.07802,-0.078 0.117037,-0.11704 0.05852,-0.0582 0.117037,-0.11705 0.175556,-0.17554 0.03901,-0.0392 0.08257,-0.074 0.117037,-0.11704 0.04393,-0.055 0.0731,-0.12064 0.117037,-0.1756 0.03447,-0.0432 0.08393,-0.0729 0.117037,-0.11698 0.02617,-0.0347 0.02767,-0.0862 0.05851,-0.11704 0.03084,-0.0308 0.08075,-0.0347 0.117037,-0.0582 0.02295,-0.015 0.03384,-0.0464 0.05851,-0.0582 0.01745,-0.009 0.03901,0 0.05852,0 0.0195,0 0.04472,-0.0137 0.05851,0 0.01379,0.0137 -0.0087,0.0412 0,0.0582 0.01234,0.0249 0.04322,0.0353 0.05852,0.0582 0.02419,0.036 0.03901,0.078 0.05851,0.11704 0.0195,0.0393 0.04794,0.0747 0.05852,0.11698 0.0095,0.038 -0.0076,0.0788 0,0.11705 0.0121,0.0602 0.03901,0.11704 0.05851,0.17559 0.07231,0.21695 0.03093,0.12038 0.117037,0.29258 0.0195,0.0393 0.03235,0.0822 0.05852,0.11705 0.0331,0.0438 0.07802,0.078 0.117037,0.11704 0.03901,0.0392 0.07802,0.078 0.117037,0.11704 0.03901,0.0393 0.0729,0.0839 0.117037,0.11705 0.151792,0.11383 0.09701,0.0196 0.292593,0.0582 0.379826,0.076 -0.130417,0.0582 0.234073,0.0582 0.0195,0 0.04107,0.009 0.05851,0 0.194082,-0.19405 -0.05517,0.0275 0.117038,-0.0582 0.02467,-0.0124 0.03384,-0.0464 0.05851,-0.0582 0.01745,-0.009 0.04107,0.009 0.05851,0 0.02467,-0.0124 0.03901,-0.0393 0.05852,-0.0589 0.0195,-0.0196 0.04618,-0.034 0.05852,-0.0582 0.0087,-0.0177 0,-0.0393 0,-0.0582"
         style="fill:none;stroke:#4e9a06;stroke-width:0.28024873px;stroke-linecap:butt;stroke-linejoin:miter;stroke-opacity:1" />
      <text
         sodipodi:linespacing="125%"
         id="text3629"
         y="989.5769"
         x="14.600067"
         style="font-size:3.37113857px;font-style:normal;font-variant:normal;font-weight:normal;font-stretch:normal;text-align:start;line-height:125%;writing-mode:lr-tb;text-anchor:start;fill:#4e9a06;fill-opacity:1;stroke:none;font-family:Nimbus Roman No9 L;-inkscape-font-specification:Nimbus Roman No9 L"
         xml:space="preserve"><tspan
           y="989.5769"
           x="14.600067"
           id="tspan3631"
           sodipodi:role="line">one thousand</tspan></text>
      <text
         sodipodi:linespacing="125%"
         id="text3633"
         y="992.37195"
         x="26.914598"
         style="font-size:21.51238251px;font-style:normal;font-variant:normal;font-weight:normal;font-stretch:normal;text-align:start;line-height:125%;writing-mode:lr-tb;text-anchor:start;fill:#4e9a06;fill-opacity:1;stroke:none;font-family:Nimbus Roman No9 L;-inkscape-font-specification:Nimbus Roman No9 L"
         xml:space="preserve"><tspan
           y="992.37195"
           x="26.914598"
           id="tspan3635"
           sodipodi:role="line">$</tspan></text>
    </g>
    <g
       transform="matrix(0.99726316,0.07393366,-0.07393366,0.99726316,72.56404,-30.527438)"
       id="g3657">
      <rect
         style="fill:#4e9a06;fill-opacity:1;stroke:none"
         id="rect3659"
         width="112.54813"
         height="42.179447"
         x="8.9787922"
         y="963.61829"
         ry="0" />
      <path
         style="fill:#73d216;fill-opacity:1;stroke:none"
         d="m 24.016151,975.10278 c 3.02647,-3.02647 2.920227,-9.60522 2.920227,-9.60522 l 89.576022,0 0,38.42084 c -31.807559,0 -66.480088,0 -95.422677,0 -0.520571,-2.6854 -1.250596,-3.1784 -2.711418,-4.5938 -1.460823,-1.41544 -4.384992,0.6941 -4.384992,-1.2528 0,-6.47349 0,-12.91087 0,-19.83686 0,0 6.996369,-0.10569 10.022838,-3.13216 z"
         id="path3661"
         sodipodi:nodetypes="ccccczscz" />
      <path
         sodipodi:type="arc"
         style="fill:#73d216;fill-opacity:1;stroke:#4e9a06"
         id="path3663"
         sodipodi:cx="62.955956"
         sodipodi:cy="62.642742"
         sodipodi:rx="14.303426"
         sodipodi:ry="14.40783"
         d="m 77.259381,62.642742 c 0,7.957225 -6.403862,14.40783 -14.303425,14.40783 -7.899564,0 -14.303426,-6.450605 -14.303426,-14.40783 0,-7.957225 6.403862,-14.40783 14.303426,-14.40783 7.899563,0 14.303425,6.450605 14.303425,14.40783 z"
         transform="matrix(1.3115942,0,0,1.3115942,-18.500793,902.65057)" />
      <g
         id="g3665"
         transform="matrix(0.8348615,0,0,0.8348615,25.13905,126.49693)">
        <path
           sodipodi:nodetypes="ccccc"
           id="path3667"
           d="m 42.597061,1031.4813 10.649266,0 c 0.02069,6.3167 -0.689346,12.8246 2.50571,16.496 -5.437732,0.6438 -10.965106,2.1839 -15.869495,-2.5057 3.4793,-4.3159 2.316852,-8.1336 2.714519,-13.9903 z"
           style="fill:#73d216;fill-opacity:1;stroke:#4e9a06;stroke-width:1;stroke-linecap:square;stroke-linejoin:miter;stroke-miterlimit:4;stroke-opacity:1;stroke-dashoffset:0" />
        <path
           sodipodi:nodetypes="csccsc"
           transform="translate(0,924.36218)"
           id="path3669"
           d="m 41.553018,86.8646 c -1.752114,-0.700845 14.082301,-4.598727 16.70473,8.143556 2.282684,11.091464 0.417619,14.616634 3.132138,13.572594 7.117899,-0.30944 -6.543934,7.31022 -5.637847,-0.83523 1.477267,-3.69884 -1.332189,-16.3331 -5.637847,-17.539973 -4.759063,-1.333963 -8.769983,-0.964383 -8.561174,-3.340947 z"
           style="fill:#4e9a06;stroke:#4e9a06;stroke-width:1px;stroke-linecap:butt;stroke-linejoin:miter;stroke-opacity:1" />
        <path
           sodipodi:nodetypes="csssc"
           id="path3671"
           d="m 56.796083,100.01958 c 0,6.45803 -2.316713,13.53331 -8.769983,13.7814 -5.088615,0.19563 -10.48599,-5.71906 -12.946167,-12.52855 -2.194382,-6.07379 3.564801,-12.946165 10.022839,-12.946165 6.458037,0 11.693311,5.235274 11.693311,11.693315 z"
           style="fill:#73d216;fill-opacity:1;stroke:#4e9a06;stroke-width:1;stroke-linecap:square;stroke-linejoin:miter;stroke-miterlimit:4;stroke-opacity:1;stroke-dashoffset:0"
           transform="translate(0,924.36218)" />
        <path
           sodipodi:nodetypes="csccsssc"
           transform="translate(0,924.36218)"
           id="path3673"
           d="m 48.652528,87.282219 c -0.826303,-4.133465 -8.788466,-2.828226 -14.40783,3.549755 -3.80796,4.322036 -3.857963,12.192926 -0.208809,15.451876 6.549913,8.63007 -1.600593,6.42527 -1.461664,7.09951 0,0 5.138248,6.46701 8.561175,2.50571 3.138415,-3.63204 0.305253,-5.65652 -2.296901,-7.93475 -4.172231,-3.65284 -4.359314,-14.475035 2.2969,-17.331155 3.400296,-1.459036 7.725938,-1.461664 7.517129,-3.340946 z"
           style="fill:#4e9a06;stroke:#4e9a06;stroke-width:1px;stroke-linecap:butt;stroke-linejoin:miter;stroke-opacity:1" />
      </g>
      <text
         xml:space="preserve"
         style="font-size:6.56455994px;font-style:normal;font-variant:normal;font-weight:normal;font-stretch:normal;text-align:start;line-height:100%;writing-mode:lr-tb;text-anchor:start;fill:#8ae234;fill-opacity:1;stroke:none;font-family:Nimbus Roman No9 L;-inkscape-font-specification:Nimbus Roman No9 L"
         x="10.887745"
         y="971.94995"
         id="text3675"
         sodipodi:linespacing="100%"><tspan
           sodipodi:role="line"
           id="tspan3677"
           x="10.887745"
           y="971.94995">1000</tspan></text>
      <path
         sodipodi:type="arc"
         style="fill:#4e9a06;fill-opacity:1;stroke:#4e9a06;stroke-width:1;stroke-linecap:square;stroke-linejoin:miter;stroke-miterlimit:4;stroke-opacity:1;stroke-dasharray:none;stroke-dashoffset:0"
         id="path3679"
         sodipodi:cx="-16.391518"
         sodipodi:cy="67.340942"
         sodipodi:rx="6.5774879"
         sodipodi:ry="10.336052"
         d="m -9.8140297,67.340942 c 0,5.708444 -2.9448413,10.336052 -6.5774883,10.336052 -3.632646,0 -6.577488,-4.627608 -6.577488,-10.336052 0,-5.708443 2.944842,-10.336052 6.577488,-10.336052 3.632647,0 6.5774883,4.627609 6.5774883,10.336052 z"
         transform="matrix(0,-1,1,0,29.859712,968.21209)" />
      <text
         sodipodi:linespacing="100%"
         id="text3681"
         y="987.36578"
         x="87.652473"
         style="font-size:9.13968563px;font-style:normal;font-variant:normal;font-weight:normal;font-stretch:normal;text-align:start;line-height:100%;writing-mode:lr-tb;text-anchor:start;fill:#8ae234;fill-opacity:1;stroke:none;font-family:Nimbus Roman No9 L;-inkscape-font-specification:Nimbus Roman No9 L"
         xml:space="preserve"><tspan
           y="987.36578"
           x="87.652473"
           id="tspan3683"
           sodipodi:role="line">1000</tspan></text>
      <path
         style="fill:none;stroke:#4e9a06;stroke-width:0.28024873px;stroke-linecap:butt;stroke-linejoin:miter;stroke-opacity:1"
         d="m 15.092,996.23407 c 0.03901,-0.0392 0.08257,-0.0739 0.117037,-0.11704 0.04393,-0.055 0.07616,-0.11829 0.117037,-0.17554 0.169572,-0.23735 0.36486,-0.45947 0.526666,-0.70219 0.06309,-0.0947 0.114492,-0.19667 0.175556,-0.29265 0.151035,-0.23729 0.320708,-0.46261 0.468148,-0.70219 0.247134,-0.40158 0.455088,-0.82729 0.702222,-1.22887 0.07372,-0.11979 0.166718,-0.22761 0.234074,-0.35113 0.06425,-0.11776 0.154844,-0.38168 0.175555,-0.52666 0.0083,-0.0582 0,-0.11704 0,-0.17553 0,-0.0393 0.02164,-0.0846 0,-0.11705 -0.05064,-0.076 -0.164014,-0.0589 -0.234074,-0.0589 -0.03901,0 -0.07878,-0.008 -0.117037,0 -0.06048,0.0124 -0.122662,0.0268 -0.175555,0.0589 -0.04731,0.0281 -0.07396,0.0826 -0.117037,0.11705 -0.01264,0.01 -0.347864,0.23016 -0.351111,0.23402 -0.05585,0.0671 -0.0708,0.16016 -0.117037,0.23409 -0.05169,0.0827 -0.117037,0.15603 -0.175556,0.23408 -0.05851,0.11705 -0.109623,0.23808 -0.175555,0.35113 -0.07088,0.1215 -0.171169,0.22526 -0.234074,0.35107 -0.07453,0.1491 -0.113659,0.31345 -0.175555,0.46818 -0.05517,0.13791 -0.120384,0.2717 -0.175556,0.40962 -0.167056,0.41766 -0.316337,0.83533 -0.351111,1.28741 -0.009,0.11672 0,0.23409 0,0.35113 0,0.1423 -0.03084,0.33406 0.05852,0.46811 0.03837,0.0576 0.190092,0.21702 0.292593,0.23409 0.07696,0.0131 0.156049,0 0.234074,0 0.05852,0 0.118784,0.0144 0.175555,0 0.101907,-0.0255 0.195061,-0.078 0.292592,-0.11704 0.09753,-0.0393 0.202518,-0.0628 0.292592,-0.11705 0.107102,-0.0641 0.191582,-0.16061 0.292593,-0.23408 0.113757,-0.0827 0.238582,-0.14963 0.351111,-0.23403 0.304714,-0.22852 0.381322,-0.3228 0.643703,-0.58521 0.210854,-0.21087 0.291395,-0.27413 0.468148,-0.52667 0.119648,-0.17089 0.308178,-0.48754 0.351111,-0.7022 0.0076,-0.0386 -0.01745,-0.0822 0,-0.11704 0.0087,-0.0177 0.05852,-0.0196 0.05852,0 0,0.0275 -0.04322,0.0353 -0.05852,0.0582 -0.04839,0.0726 -0.07216,0.15931 -0.117036,0.23409 -0.03619,0.0602 -0.08933,0.11089 -0.117038,0.17553 -0.04503,0.10507 -0.08926,0.43409 -0.117037,0.52666 -0.03019,0.10062 -0.0894,0.1913 -0.117037,0.29264 -0.03122,0.11443 -0.03729,0.23435 -0.05852,0.35107 -0.01779,0.0979 -0.03901,0.1951 -0.05851,0.29264 -0.03839,0.19196 -0.08631,0.3321 -0.05852,0.52667 0.0087,0.0608 0.03901,0.11704 0.05852,0.17553 0.0195,0.0582 0.02151,0.1262 0.05851,0.17553 0.02617,0.0347 0.07803,0.0393 0.117038,0.0589 0.03901,0.0196 0.07342,0.0582 0.117036,0.0582 0.06168,0 0.114711,-0.0484 0.175556,-0.0582 0.05772,-0.01 0.12004,0.0183 0.175556,0 0.06672,-0.0223 0.110911,-0.0894 0.175555,-0.11705 0.07392,-0.0314 0.160151,-0.0268 0.234074,-0.0589 0.06464,-0.0275 0.117037,-0.078 0.175556,-0.11698 0.117036,-0.0781 0.238581,-0.14969 0.35111,-0.23409 0.02828,-0.0209 0.122023,-0.17056 0.175556,-0.11704 0.02758,0.0275 -0.01744,0.0821 0,0.11704 0.194081,0.19405 -0.02758,-0.0549 0.05851,0.11705 0.01234,0.0249 0.03901,0.0393 0.05852,0.0582 0.0195,0.0196 0.03556,0.0432 0.05851,0.0589 0.03629,0.0242 0.08075,0.034 0.117037,0.0582 0.02295,0.015 0.03235,0.0497 0.05852,0.0582 0.03701,0.0124 0.07919,-0.009 0.117037,0 0.08463,0.0209 0.149444,0.0959 0.234074,0.11705 0.03785,0.009 0.07802,0 0.117037,0 0.05852,0 0.117037,0 0.175555,0 0.08875,0 0.38958,0.0131 0.468148,0 0.06085,-0.01 0.114711,-0.0484 0.175556,-0.0582 0.05772,-0.01 0.117037,0 0.175555,0 0.05852,0 0.117037,0 0.175556,0 0.04791,0 0.254677,-0.0124 0.292592,0 0.105915,-0.0353 0.108834,0.0948 0.175556,0.11704 0.03701,0.0124 0.08003,-0.0124 0.117037,0 0.02617,0.009 0.03556,0.0432 0.05852,0.0582 0.03629,0.0242 0.07802,0.0393 0.117036,0.0589 0.03901,0.0196 0.07427,0.0497 0.117037,0.0582 0.05738,0.0118 0.118174,-0.0118 0.175556,0 0.04277,0.009 0.07427,0.0497 0.117036,0.0589 0.05738,0.0111 0.117038,0 0.175556,0 0.05852,0 0.117037,0 0.175556,0 0.05852,0 0.117037,0 0.175555,0 0.03901,0 0.07878,0.008 0.117037,0 0.06048,-0.0124 0.117038,-0.0392 0.175555,-0.0589 0.22193,-0.074 0.270779,-0.10246 0.468148,-0.23409 0.05852,-0.0393 0.121527,-0.072 0.175556,-0.11704 0.182282,-0.15185 0.326327,-0.36304 0.409629,-0.58516 0.08691,-0.23173 0.05852,-0.32228 0.05852,-0.58515 0,-0.13654 0.0097,-0.27347 0,-0.40969 -0.0098,-0.13752 -0.04141,-0.27275 -0.05852,-0.40962 -0.02191,-0.17527 -0.03097,-0.35218 -0.05851,-0.52666 -0.03102,-0.19647 -0.07606,-0.39052 -0.117037,-0.58515 -0.08675,-0.41211 -0.115463,-0.61525 -0.292592,-0.99484 -0.0665,-0.1425 -0.151653,-0.2757 -0.234074,-0.40963 -0.211783,-0.34413 -0.241687,-0.40589 -0.585185,-0.6437 -0.37826,-0.2619 -0.486408,-0.25967 -0.936296,-0.40962 -0.698117,-0.23272 -0.357919,-0.16226 -1.111851,-0.23409 -0.214482,-0.0203 -0.429221,-0.038 -0.643703,-0.0582 -0.195152,-0.0183 -0.389151,-0.0589 -0.585185,-0.0589 -0.372834,0 -0.809296,0.0996 -1.170371,0.1756 -0.17598,0.0373 -0.356056,0.0602 -0.526666,0.11704 -0.337759,0.11253 -0.70578,0.32019 -0.994814,0.52667 -0.430818,0.30769 -0.822967,0.73929 -0.877778,1.28735 -0.0097,0.0971 -0.02116,0.19738 0,0.29264 0.01893,0.0851 0.0708,0.16009 0.117037,0.23402 0.146076,0.23376 0.205889,0.29042 0.468148,0.40969 0.285988,0.12993 0.44809,0.13386 0.760741,0.17553 0.433812,0.0576 0.543675,0.0835 0.994814,0.0582 0.176364,-0.01 0.350275,-0.0491 0.526667,-0.0582 0.665643,-0.0353 0.478409,0.053 1.111851,-0.0589 1.494098,-0.26366 -0.541152,-0.0111 0.936296,-0.11698 0.11835,-0.009 0.232869,-0.0484 0.351111,-0.0589 0.116632,-0.01 0.234073,0 0.351111,0 0.09753,0 0.195061,0 0.292592,0 0.07802,0 0.157111,-0.0131 0.234074,0 0.04302,0.007 0.07803,0.0392 0.117037,0.0589 0.14171,0.0709 0.0862,0.0275 0.175556,0.11698 0.0195,0.0196 0.04618,0.034 0.05852,0.0589 0.0087,0.0177 -0.0061,0.0399 0,0.0582 0.01379,0.0412 0.04472,0.0757 0.05851,0.11704 0.01635,0.0491 -0.01939,0.19529 0,0.23409 0.01234,0.0249 0.04979,0.0321 0.05851,0.0582 0.01234,0.0373 0,0.078 0,0.11704 0,0.0196 -0.0087,0.0412 0,0.0589 0.01234,0.0249 0.04618,0.034 0.05852,0.0582 0.0087,0.0177 -0.01379,0.0445 0,0.0589 0.01379,0.0137 0.04107,-0.008 0.05852,0 0.07022,0.0353 0.105333,0.1404 0.175555,0.17553 0.01744,0.009 0.04472,-0.0137 0.05851,0 0.01379,0.0137 -0.0087,0.0412 0,0.0582 0.03899,0.078 0.07804,0.0393 0.117037,0.11705 0.0087,0.0177 -0.0087,0.0412 0,0.0589 0.07147,0.14295 0.04557,-0.0262 0.117037,0.11704 0.0087,0.0177 -0.0087,0.0412 0,0.0582 0.01234,0.0249 0.04618,0.034 0.05852,0.0589 0.0087,0.0177 -0.0087,0.0412 0,0.0582 0.01234,0.0249 0.03901,0.0393 0.05852,0.0582 0.0195,0.0196 0.03235,0.0497 0.05852,0.0582 0.03701,0.0124 0.07803,0 0.117037,0 0.0195,0 0.04001,0.007 0.05851,0 0.04138,-0.0137 0.07472,-0.0478 0.117038,-0.0582 0.03785,-0.009 0.07919,0.009 0.117036,0 0.116212,-0.0288 0.234901,-0.14655 0.351112,-0.1756 0.03785,-0.009 0.08003,0.0124 0.117037,0 0.02617,-0.009 0.03384,-0.0464 0.05852,-0.0582 0.01201,-0.007 0.167302,-0.009 0.175555,0 0.01379,0.0137 0,0.0393 0,0.0582 0,0.0196 0.0087,0.0412 0,0.0589 -0.01234,0.0249 -0.04618,0.034 -0.05851,0.0582 -0.0025,0.007 -0.0025,0.22911 0,0.23408 0.01234,0.0249 0.03384,0.0465 0.05851,0.0582 0.01745,0.009 0.03901,0 0.05852,0 0.0195,0 0.03901,0 0.05851,0 0.03901,0 0.07803,0 0.117038,0 0.03901,0 0.07919,0.009 0.117037,0 0.04232,-0.0105 0.07654,-0.0425 0.117036,-0.0582 0.05727,-0.0229 0.120384,-0.0308 0.175556,-0.0589 0.06291,-0.0314 0.11265,-0.0856 0.175556,-0.11698 0.05517,-0.0275 0.118283,-0.0353 0.175555,-0.0582 0.156049,-0.0622 0.09851,-0.0782 0.292592,-0.11705 0.03825,-0.008 0.07919,0.009 0.117037,0 0.04232,-0.0105 0.07472,-0.0478 0.117037,-0.0582 0.05677,-0.0144 0.117038,0 0.175556,0 0.0195,0 0.04472,-0.0137 0.05852,0 0.01379,0.0137 -0.0087,0.0412 0,0.0582 0.06469,0.12941 0.03632,0.0183 0.117036,0.0589 0.02467,0.0124 0.03235,0.0497 0.05852,0.0582 0.03701,0.0124 0.07802,0 0.117037,0 0.117036,0 0.234074,0 0.351111,0 0.623083,0 -0.211538,0.015 0.526666,-0.0582 0.09705,-0.01 0.195658,0.0105 0.292593,0 0.07993,-0.009 0.155563,-0.0412 0.234073,-0.0589 0.09709,-0.0216 0.193739,-0.0478 0.292593,-0.0582 0.07755,-0.009 0.156049,0 0.234074,0 0.07802,0 0.156049,0 0.234074,0 0.122193,0 0.228917,0 0.351111,0 0.03901,0 0.07919,-0.009 0.117037,0 0.04232,0.0105 0.07472,0.0477 0.117037,0.0582 0.03785,0.009 0.08003,-0.0124 0.117037,0 0.05234,0.0177 0.06769,0.0924 0.117036,0.11705 0.01745,0.009 0.04001,-0.007 0.05852,0 0.04138,0.0137 0.07803,0.0393 0.117037,0.0582 0.09551,0.0478 0.184125,0.0989 0.292593,0.11698 0.05772,0.01 0.117832,-0.01 0.175555,0 0.118767,0.0196 0.232343,0.0973 0.35111,0.11705 0.05772,0.01 0.118174,-0.0111 0.175556,0 0.04277,0.008 0.07427,0.0497 0.117037,0.0589 0.05738,0.0111 0.118785,-0.0144 0.175556,0 0.02676,0.007 0.03235,0.0497 0.05851,0.0582 0.266394,0 0.0033,-0.0275 0.175556,0.0589 0.03489,0.0177 0.08945,-0.0275 0.117037,0 0.02758,0.0275 -0.01745,0.0821 0,0.11704 0.03922,0.0784 0.07782,0.0386 0.117037,0.11698 0.04036,0.0807 -0.07087,0.0523 0.05852,0.11704 0.01745,0.009 0.04472,-0.0137 0.05851,0 0.01379,0.0137 -0.01379,0.0445 0,0.0589 0.01379,0.0137 0.04107,-0.009 0.05852,0 0.02467,0.0124 0.03384,0.0465 0.05851,0.0582 0.01745,0.009 0.03901,0 0.05851,0 0.0195,0 0.04107,0.009 0.05852,0 0.02467,-0.0124 0.03556,-0.0432 0.05852,-0.0582 0.03629,-0.0242 0.07803,-0.0393 0.117037,-0.0589 0.03901,-0.0392 0.07395,-0.0826 0.117037,-0.11704 0.460726,-0.36853 -0.151033,0.16644 0.409629,-0.23402 0.06734,-0.0484 0.117037,-0.11705 0.175556,-0.1756 0.05851,-0.0582 0.117037,-0.11705 0.175555,-0.17553 0.211865,-0.21185 0.248455,-0.22637 0.40963,-0.46818 0.06309,-0.0946 0.105726,-0.20281 0.175555,-0.29258 0.06774,-0.0871 0.162263,-0.15028 0.234074,-0.23408 0.04577,-0.0537 0.06731,-0.12581 0.117037,-0.17554 0.04973,-0.0497 0.120637,-0.0731 0.175556,-0.11704 0.04308,-0.0347 0.07802,-0.078 0.117037,-0.11704 0.0195,-0.0196 0.03901,-0.078 0.05851,-0.0582 0.0195,0.0196 -0.04322,0.0353 -0.05851,0.0582 -0.02419,0.036 -0.04232,0.0765 -0.05852,0.11704 -0.101294,0.25326 -0.01933,0.15571 -0.175555,0.46817 -0.05087,0.10174 -0.13181,0.18758 -0.175556,0.29258 -0.05462,0.13111 -0.06927,0.27589 -0.117037,0.40962 -0.04996,0.13988 -0.120384,0.27171 -0.175555,0.40962 -0.0619,0.15473 -0.119502,0.31123 -0.175556,0.46818 -0.109927,0.30775 -0.13968,0.37933 -0.175555,0.7022 -0.01118,0.10055 -0.0067,0.26411 0.05851,0.35113 0.02617,0.0347 0.08075,0.0347 0.117037,0.0582 0.02295,0.015 0.03234,0.0497 0.05851,0.0589 0.03701,0.0124 0.07803,0 0.117037,0 0.03901,0 0.07919,0.009 0.117037,0 0.04232,-0.0105 0.07803,-0.0393 0.117037,-0.0589 0.12155,-0.0608 0.174899,-0.0814 0.292592,-0.17553 0.04308,-0.0347 0.07802,-0.078 0.117037,-0.11704 0.05852,-0.0582 0.117037,-0.11705 0.175556,-0.17554 0.03901,-0.0392 0.08257,-0.074 0.117037,-0.11704 0.04393,-0.055 0.0731,-0.12064 0.117037,-0.1756 0.03447,-0.0432 0.08393,-0.0729 0.117037,-0.11698 0.02617,-0.0347 0.02767,-0.0862 0.05851,-0.11704 0.03084,-0.0308 0.08075,-0.0347 0.117037,-0.0582 0.02295,-0.015 0.03384,-0.0464 0.05851,-0.0582 0.01745,-0.009 0.03901,0 0.05852,0 0.0195,0 0.04472,-0.0137 0.05851,0 0.01379,0.0137 -0.0087,0.0412 0,0.0582 0.01234,0.0249 0.04322,0.0353 0.05852,0.0582 0.02419,0.036 0.03901,0.078 0.05851,0.11704 0.0195,0.0393 0.04794,0.0747 0.05852,0.11698 0.0095,0.038 -0.0076,0.0788 0,0.11705 0.0121,0.0602 0.03901,0.11704 0.05851,0.17559 0.07231,0.21695 0.03093,0.12038 0.117037,0.29258 0.0195,0.0393 0.03235,0.0822 0.05852,0.11705 0.0331,0.0438 0.07802,0.078 0.117037,0.11704 0.03901,0.0392 0.07802,0.078 0.117037,0.11704 0.03901,0.0393 0.0729,0.0839 0.117037,0.11705 0.151792,0.11383 0.09701,0.0196 0.292593,0.0582 0.379826,0.076 -0.130417,0.0582 0.234073,0.0582 0.0195,0 0.04107,0.009 0.05851,0 0.194082,-0.19405 -0.05517,0.0275 0.117038,-0.0582 0.02467,-0.0124 0.03384,-0.0464 0.05851,-0.0582 0.01745,-0.009 0.04107,0.009 0.05851,0 0.02467,-0.0124 0.03901,-0.0393 0.05852,-0.0589 0.0195,-0.0196 0.04618,-0.034 0.05852,-0.0582 0.0087,-0.0177 0,-0.0393 0,-0.0582"
         id="path3685" />
      <text
         xml:space="preserve"
         style="font-size:3.37113857px;font-style:normal;font-variant:normal;font-weight:normal;font-stretch:normal;text-align:start;line-height:125%;writing-mode:lr-tb;text-anchor:start;fill:#4e9a06;fill-opacity:1;stroke:none;font-family:Nimbus Roman No9 L;-inkscape-font-specification:Nimbus Roman No9 L"
         x="14.600067"
         y="989.5769"
         id="text3687"
         sodipodi:linespacing="125%"><tspan
           sodipodi:role="line"
           id="tspan3689"
           x="14.600067"
           y="989.5769">one thousand</tspan></text>
      <text
         xml:space="preserve"
         style="font-size:21.51238251px;font-style:normal;font-variant:normal;font-weight:normal;font-stretch:normal;text-align:start;line-height:125%;writing-mode:lr-tb;text-anchor:start;fill:#4e9a06;fill-opacity:1;stroke:none;font-family:Nimbus Roman No9 L;-inkscape-font-specification:Nimbus Roman No9 L"
         x="26.914598"
         y="992.37195"
         id="text3691"
         sodipodi:linespacing="125%"><tspan
           sodipodi:role="line"
           id="tspan3693"
           x="26.914598"
           y="992.37195">$</tspan></text>
    </g>
    <g
       id="g3695"
       transform="matrix(0.98428889,0.17656552,-0.17656552,0.98428889,172.17616,-20.898835)">
      <rect
         ry="0"
         y="963.61829"
         x="8.9787922"
         height="42.179447"
         width="112.54813"
         id="rect3697"
         style="fill:#4e9a06;fill-opacity:1;stroke:none" />
      <path
         sodipodi:nodetypes="ccccczscz"
         id="path3699"
         d="m 24.016151,975.10278 c 3.02647,-3.02647 2.920227,-9.60522 2.920227,-9.60522 l 89.576022,0 0,38.42084 c -31.807559,0 -66.480088,0 -95.422677,0 -0.520571,-2.6854 -1.250596,-3.1784 -2.711418,-4.5938 -1.460823,-1.41544 -4.384992,0.6941 -4.384992,-1.2528 0,-6.47349 0,-12.91087 0,-19.83686 0,0 6.996369,-0.10569 10.022838,-3.13216 z"
         style="fill:#73d216;fill-opacity:1;stroke:none" />
      <path
         transform="matrix(1.3115942,0,0,1.3115942,-18.500793,902.65057)"
         d="m 77.259381,62.642742 c 0,7.957225 -6.403862,14.40783 -14.303425,14.40783 -7.899564,0 -14.303426,-6.450605 -14.303426,-14.40783 0,-7.957225 6.403862,-14.40783 14.303426,-14.40783 7.899563,0 14.303425,6.450605 14.303425,14.40783 z"
         sodipodi:ry="14.40783"
         sodipodi:rx="14.303426"
         sodipodi:cy="62.642742"
         sodipodi:cx="62.955956"
         id="path3701"
         style="fill:#73d216;fill-opacity:1;stroke:#4e9a06"
         sodipodi:type="arc" />
      <g
         transform="matrix(0.8348615,0,0,0.8348615,25.13905,126.49693)"
         id="g3703">
        <path
           style="fill:#73d216;fill-opacity:1;stroke:#4e9a06;stroke-width:1;stroke-linecap:square;stroke-linejoin:miter;stroke-miterlimit:4;stroke-opacity:1;stroke-dashoffset:0"
           d="m 42.597061,1031.4813 10.649266,0 c 0.02069,6.3167 -0.689346,12.8246 2.50571,16.496 -5.437732,0.6438 -10.965106,2.1839 -15.869495,-2.5057 3.4793,-4.3159 2.316852,-8.1336 2.714519,-13.9903 z"
           id="path3705"
           sodipodi:nodetypes="ccccc" />
        <path
           style="fill:#4e9a06;stroke:#4e9a06;stroke-width:1px;stroke-linecap:butt;stroke-linejoin:miter;stroke-opacity:1"
           d="m 41.553018,86.8646 c -1.752114,-0.700845 14.082301,-4.598727 16.70473,8.143556 2.282684,11.091464 0.417619,14.616634 3.132138,13.572594 7.117899,-0.30944 -6.543934,7.31022 -5.637847,-0.83523 1.477267,-3.69884 -1.332189,-16.3331 -5.637847,-17.539973 -4.759063,-1.333963 -8.769983,-0.964383 -8.561174,-3.340947 z"
           id="path3707"
           transform="translate(0,924.36218)"
           sodipodi:nodetypes="csccsc" />
        <path
           transform="translate(0,924.36218)"
           style="fill:#73d216;fill-opacity:1;stroke:#4e9a06;stroke-width:1;stroke-linecap:square;stroke-linejoin:miter;stroke-miterlimit:4;stroke-opacity:1;stroke-dashoffset:0"
           d="m 56.796083,100.01958 c 0,6.45803 -2.316713,13.53331 -8.769983,13.7814 -5.088615,0.19563 -10.48599,-5.71906 -12.946167,-12.52855 -2.194382,-6.07379 3.564801,-12.946165 10.022839,-12.946165 6.458037,0 11.693311,5.235274 11.693311,11.693315 z"
           id="path3709"
           sodipodi:nodetypes="csssc" />
        <path
           style="fill:#4e9a06;stroke:#4e9a06;stroke-width:1px;stroke-linecap:butt;stroke-linejoin:miter;stroke-opacity:1"
           d="m 48.652528,87.282219 c -0.826303,-4.133465 -8.788466,-2.828226 -14.40783,3.549755 -3.80796,4.322036 -3.857963,12.192926 -0.208809,15.451876 6.549913,8.63007 -1.600593,6.42527 -1.461664,7.09951 0,0 5.138248,6.46701 8.561175,2.50571 3.138415,-3.63204 0.305253,-5.65652 -2.296901,-7.93475 -4.172231,-3.65284 -4.359314,-14.475035 2.2969,-17.331155 3.400296,-1.459036 7.725938,-1.461664 7.517129,-3.340946 z"
           id="path3711"
           transform="translate(0,924.36218)"
           sodipodi:nodetypes="csccsssc" />
      </g>
      <text
         sodipodi:linespacing="100%"
         id="text3713"
         y="971.94995"
         x="10.887745"
         style="font-size:6.56455994px;font-style:normal;font-variant:normal;font-weight:normal;font-stretch:normal;text-align:start;line-height:100%;writing-mode:lr-tb;text-anchor:start;fill:#8ae234;fill-opacity:1;stroke:none;font-family:Nimbus Roman No9 L;-inkscape-font-specification:Nimbus Roman No9 L"
         xml:space="preserve"><tspan
           y="971.94995"
           x="10.887745"
           id="tspan3715"
           sodipodi:role="line">1000</tspan></text>
      <path
         transform="matrix(0,-1,1,0,29.859712,968.21209)"
         d="m -9.8140297,67.340942 c 0,5.708444 -2.9448413,10.336052 -6.5774883,10.336052 -3.632646,0 -6.577488,-4.627608 -6.577488,-10.336052 0,-5.708443 2.944842,-10.336052 6.577488,-10.336052 3.632647,0 6.5774883,4.627609 6.5774883,10.336052 z"
         sodipodi:ry="10.336052"
         sodipodi:rx="6.5774879"
         sodipodi:cy="67.340942"
         sodipodi:cx="-16.391518"
         id="path3717"
         style="fill:#4e9a06;fill-opacity:1;stroke:#4e9a06;stroke-width:1;stroke-linecap:square;stroke-linejoin:miter;stroke-miterlimit:4;stroke-opacity:1;stroke-dasharray:none;stroke-dashoffset:0"
         sodipodi:type="arc" />
      <text
         xml:space="preserve"
         style="font-size:9.13968563px;font-style:normal;font-variant:normal;font-weight:normal;font-stretch:normal;text-align:start;line-height:100%;writing-mode:lr-tb;text-anchor:start;fill:#8ae234;fill-opacity:1;stroke:none;font-family:Nimbus Roman No9 L;-inkscape-font-specification:Nimbus Roman No9 L"
         x="87.652473"
         y="987.36578"
         id="text3719"
         sodipodi:linespacing="100%"><tspan
           sodipodi:role="line"
           id="tspan3721"
           x="87.652473"
           y="987.36578">1000</tspan></text>
      <path
         id="path3723"
         d="m 15.092,996.23407 c 0.03901,-0.0392 0.08257,-0.0739 0.117037,-0.11704 0.04393,-0.055 0.07616,-0.11829 0.117037,-0.17554 0.169572,-0.23735 0.36486,-0.45947 0.526666,-0.70219 0.06309,-0.0947 0.114492,-0.19667 0.175556,-0.29265 0.151035,-0.23729 0.320708,-0.46261 0.468148,-0.70219 0.247134,-0.40158 0.455088,-0.82729 0.702222,-1.22887 0.07372,-0.11979 0.166718,-0.22761 0.234074,-0.35113 0.06425,-0.11776 0.154844,-0.38168 0.175555,-0.52666 0.0083,-0.0582 0,-0.11704 0,-0.17553 0,-0.0393 0.02164,-0.0846 0,-0.11705 -0.05064,-0.076 -0.164014,-0.0589 -0.234074,-0.0589 -0.03901,0 -0.07878,-0.008 -0.117037,0 -0.06048,0.0124 -0.122662,0.0268 -0.175555,0.0589 -0.04731,0.0281 -0.07396,0.0826 -0.117037,0.11705 -0.01264,0.01 -0.347864,0.23016 -0.351111,0.23402 -0.05585,0.0671 -0.0708,0.16016 -0.117037,0.23409 -0.05169,0.0827 -0.117037,0.15603 -0.175556,0.23408 -0.05851,0.11705 -0.109623,0.23808 -0.175555,0.35113 -0.07088,0.1215 -0.171169,0.22526 -0.234074,0.35107 -0.07453,0.1491 -0.113659,0.31345 -0.175555,0.46818 -0.05517,0.13791 -0.120384,0.2717 -0.175556,0.40962 -0.167056,0.41766 -0.316337,0.83533 -0.351111,1.28741 -0.009,0.11672 0,0.23409 0,0.35113 0,0.1423 -0.03084,0.33406 0.05852,0.46811 0.03837,0.0576 0.190092,0.21702 0.292593,0.23409 0.07696,0.0131 0.156049,0 0.234074,0 0.05852,0 0.118784,0.0144 0.175555,0 0.101907,-0.0255 0.195061,-0.078 0.292592,-0.11704 0.09753,-0.0393 0.202518,-0.0628 0.292592,-0.11705 0.107102,-0.0641 0.191582,-0.16061 0.292593,-0.23408 0.113757,-0.0827 0.238582,-0.14963 0.351111,-0.23403 0.304714,-0.22852 0.381322,-0.3228 0.643703,-0.58521 0.210854,-0.21087 0.291395,-0.27413 0.468148,-0.52667 0.119648,-0.17089 0.308178,-0.48754 0.351111,-0.7022 0.0076,-0.0386 -0.01745,-0.0822 0,-0.11704 0.0087,-0.0177 0.05852,-0.0196 0.05852,0 0,0.0275 -0.04322,0.0353 -0.05852,0.0582 -0.04839,0.0726 -0.07216,0.15931 -0.117036,0.23409 -0.03619,0.0602 -0.08933,0.11089 -0.117038,0.17553 -0.04503,0.10507 -0.08926,0.43409 -0.117037,0.52666 -0.03019,0.10062 -0.0894,0.1913 -0.117037,0.29264 -0.03122,0.11443 -0.03729,0.23435 -0.05852,0.35107 -0.01779,0.0979 -0.03901,0.1951 -0.05851,0.29264 -0.03839,0.19196 -0.08631,0.3321 -0.05852,0.52667 0.0087,0.0608 0.03901,0.11704 0.05852,0.17553 0.0195,0.0582 0.02151,0.1262 0.05851,0.17553 0.02617,0.0347 0.07803,0.0393 0.117038,0.0589 0.03901,0.0196 0.07342,0.0582 0.117036,0.0582 0.06168,0 0.114711,-0.0484 0.175556,-0.0582 0.05772,-0.01 0.12004,0.0183 0.175556,0 0.06672,-0.0223 0.110911,-0.0894 0.175555,-0.11705 0.07392,-0.0314 0.160151,-0.0268 0.234074,-0.0589 0.06464,-0.0275 0.117037,-0.078 0.175556,-0.11698 0.117036,-0.0781 0.238581,-0.14969 0.35111,-0.23409 0.02828,-0.0209 0.122023,-0.17056 0.175556,-0.11704 0.02758,0.0275 -0.01744,0.0821 0,0.11704 0.194081,0.19405 -0.02758,-0.0549 0.05851,0.11705 0.01234,0.0249 0.03901,0.0393 0.05852,0.0582 0.0195,0.0196 0.03556,0.0432 0.05851,0.0589 0.03629,0.0242 0.08075,0.034 0.117037,0.0582 0.02295,0.015 0.03235,0.0497 0.05852,0.0582 0.03701,0.0124 0.07919,-0.009 0.117037,0 0.08463,0.0209 0.149444,0.0959 0.234074,0.11705 0.03785,0.009 0.07802,0 0.117037,0 0.05852,0 0.117037,0 0.175555,0 0.08875,0 0.38958,0.0131 0.468148,0 0.06085,-0.01 0.114711,-0.0484 0.175556,-0.0582 0.05772,-0.01 0.117037,0 0.175555,0 0.05852,0 0.117037,0 0.175556,0 0.04791,0 0.254677,-0.0124 0.292592,0 0.105915,-0.0353 0.108834,0.0948 0.175556,0.11704 0.03701,0.0124 0.08003,-0.0124 0.117037,0 0.02617,0.009 0.03556,0.0432 0.05852,0.0582 0.03629,0.0242 0.07802,0.0393 0.117036,0.0589 0.03901,0.0196 0.07427,0.0497 0.117037,0.0582 0.05738,0.0118 0.118174,-0.0118 0.175556,0 0.04277,0.009 0.07427,0.0497 0.117036,0.0589 0.05738,0.0111 0.117038,0 0.175556,0 0.05852,0 0.117037,0 0.175556,0 0.05852,0 0.117037,0 0.175555,0 0.03901,0 0.07878,0.008 0.117037,0 0.06048,-0.0124 0.117038,-0.0392 0.175555,-0.0589 0.22193,-0.074 0.270779,-0.10246 0.468148,-0.23409 0.05852,-0.0393 0.121527,-0.072 0.175556,-0.11704 0.182282,-0.15185 0.326327,-0.36304 0.409629,-0.58516 0.08691,-0.23173 0.05852,-0.32228 0.05852,-0.58515 0,-0.13654 0.0097,-0.27347 0,-0.40969 -0.0098,-0.13752 -0.04141,-0.27275 -0.05852,-0.40962 -0.02191,-0.17527 -0.03097,-0.35218 -0.05851,-0.52666 -0.03102,-0.19647 -0.07606,-0.39052 -0.117037,-0.58515 -0.08675,-0.41211 -0.115463,-0.61525 -0.292592,-0.99484 -0.0665,-0.1425 -0.151653,-0.2757 -0.234074,-0.40963 -0.211783,-0.34413 -0.241687,-0.40589 -0.585185,-0.6437 -0.37826,-0.2619 -0.486408,-0.25967 -0.936296,-0.40962 -0.698117,-0.23272 -0.357919,-0.16226 -1.111851,-0.23409 -0.214482,-0.0203 -0.429221,-0.038 -0.643703,-0.0582 -0.195152,-0.0183 -0.389151,-0.0589 -0.585185,-0.0589 -0.372834,0 -0.809296,0.0996 -1.170371,0.1756 -0.17598,0.0373 -0.356056,0.0602 -0.526666,0.11704 -0.337759,0.11253 -0.70578,0.32019 -0.994814,0.52667 -0.430818,0.30769 -0.822967,0.73929 -0.877778,1.28735 -0.0097,0.0971 -0.02116,0.19738 0,0.29264 0.01893,0.0851 0.0708,0.16009 0.117037,0.23402 0.146076,0.23376 0.205889,0.29042 0.468148,0.40969 0.285988,0.12993 0.44809,0.13386 0.760741,0.17553 0.433812,0.0576 0.543675,0.0835 0.994814,0.0582 0.176364,-0.01 0.350275,-0.0491 0.526667,-0.0582 0.665643,-0.0353 0.478409,0.053 1.111851,-0.0589 1.494098,-0.26366 -0.541152,-0.0111 0.936296,-0.11698 0.11835,-0.009 0.232869,-0.0484 0.351111,-0.0589 0.116632,-0.01 0.234073,0 0.351111,0 0.09753,0 0.195061,0 0.292592,0 0.07802,0 0.157111,-0.0131 0.234074,0 0.04302,0.007 0.07803,0.0392 0.117037,0.0589 0.14171,0.0709 0.0862,0.0275 0.175556,0.11698 0.0195,0.0196 0.04618,0.034 0.05852,0.0589 0.0087,0.0177 -0.0061,0.0399 0,0.0582 0.01379,0.0412 0.04472,0.0757 0.05851,0.11704 0.01635,0.0491 -0.01939,0.19529 0,0.23409 0.01234,0.0249 0.04979,0.0321 0.05851,0.0582 0.01234,0.0373 0,0.078 0,0.11704 0,0.0196 -0.0087,0.0412 0,0.0589 0.01234,0.0249 0.04618,0.034 0.05852,0.0582 0.0087,0.0177 -0.01379,0.0445 0,0.0589 0.01379,0.0137 0.04107,-0.008 0.05852,0 0.07022,0.0353 0.105333,0.1404 0.175555,0.17553 0.01744,0.009 0.04472,-0.0137 0.05851,0 0.01379,0.0137 -0.0087,0.0412 0,0.0582 0.03899,0.078 0.07804,0.0393 0.117037,0.11705 0.0087,0.0177 -0.0087,0.0412 0,0.0589 0.07147,0.14295 0.04557,-0.0262 0.117037,0.11704 0.0087,0.0177 -0.0087,0.0412 0,0.0582 0.01234,0.0249 0.04618,0.034 0.05852,0.0589 0.0087,0.0177 -0.0087,0.0412 0,0.0582 0.01234,0.0249 0.03901,0.0393 0.05852,0.0582 0.0195,0.0196 0.03235,0.0497 0.05852,0.0582 0.03701,0.0124 0.07803,0 0.117037,0 0.0195,0 0.04001,0.007 0.05851,0 0.04138,-0.0137 0.07472,-0.0478 0.117038,-0.0582 0.03785,-0.009 0.07919,0.009 0.117036,0 0.116212,-0.0288 0.234901,-0.14655 0.351112,-0.1756 0.03785,-0.009 0.08003,0.0124 0.117037,0 0.02617,-0.009 0.03384,-0.0464 0.05852,-0.0582 0.01201,-0.007 0.167302,-0.009 0.175555,0 0.01379,0.0137 0,0.0393 0,0.0582 0,0.0196 0.0087,0.0412 0,0.0589 -0.01234,0.0249 -0.04618,0.034 -0.05851,0.0582 -0.0025,0.007 -0.0025,0.22911 0,0.23408 0.01234,0.0249 0.03384,0.0465 0.05851,0.0582 0.01745,0.009 0.03901,0 0.05852,0 0.0195,0 0.03901,0 0.05851,0 0.03901,0 0.07803,0 0.117038,0 0.03901,0 0.07919,0.009 0.117037,0 0.04232,-0.0105 0.07654,-0.0425 0.117036,-0.0582 0.05727,-0.0229 0.120384,-0.0308 0.175556,-0.0589 0.06291,-0.0314 0.11265,-0.0856 0.175556,-0.11698 0.05517,-0.0275 0.118283,-0.0353 0.175555,-0.0582 0.156049,-0.0622 0.09851,-0.0782 0.292592,-0.11705 0.03825,-0.008 0.07919,0.009 0.117037,0 0.04232,-0.0105 0.07472,-0.0478 0.117037,-0.0582 0.05677,-0.0144 0.117038,0 0.175556,0 0.0195,0 0.04472,-0.0137 0.05852,0 0.01379,0.0137 -0.0087,0.0412 0,0.0582 0.06469,0.12941 0.03632,0.0183 0.117036,0.0589 0.02467,0.0124 0.03235,0.0497 0.05852,0.0582 0.03701,0.0124 0.07802,0 0.117037,0 0.117036,0 0.234074,0 0.351111,0 0.623083,0 -0.211538,0.015 0.526666,-0.0582 0.09705,-0.01 0.195658,0.0105 0.292593,0 0.07993,-0.009 0.155563,-0.0412 0.234073,-0.0589 0.09709,-0.0216 0.193739,-0.0478 0.292593,-0.0582 0.07755,-0.009 0.156049,0 0.234074,0 0.07802,0 0.156049,0 0.234074,0 0.122193,0 0.228917,0 0.351111,0 0.03901,0 0.07919,-0.009 0.117037,0 0.04232,0.0105 0.07472,0.0477 0.117037,0.0582 0.03785,0.009 0.08003,-0.0124 0.117037,0 0.05234,0.0177 0.06769,0.0924 0.117036,0.11705 0.01745,0.009 0.04001,-0.007 0.05852,0 0.04138,0.0137 0.07803,0.0393 0.117037,0.0582 0.09551,0.0478 0.184125,0.0989 0.292593,0.11698 0.05772,0.01 0.117832,-0.01 0.175555,0 0.118767,0.0196 0.232343,0.0973 0.35111,0.11705 0.05772,0.01 0.118174,-0.0111 0.175556,0 0.04277,0.008 0.07427,0.0497 0.117037,0.0589 0.05738,0.0111 0.118785,-0.0144 0.175556,0 0.02676,0.007 0.03235,0.0497 0.05851,0.0582 0.266394,0 0.0033,-0.0275 0.175556,0.0589 0.03489,0.0177 0.08945,-0.0275 0.117037,0 0.02758,0.0275 -0.01745,0.0821 0,0.11704 0.03922,0.0784 0.07782,0.0386 0.117037,0.11698 0.04036,0.0807 -0.07087,0.0523 0.05852,0.11704 0.01745,0.009 0.04472,-0.0137 0.05851,0 0.01379,0.0137 -0.01379,0.0445 0,0.0589 0.01379,0.0137 0.04107,-0.009 0.05852,0 0.02467,0.0124 0.03384,0.0465 0.05851,0.0582 0.01745,0.009 0.03901,0 0.05851,0 0.0195,0 0.04107,0.009 0.05852,0 0.02467,-0.0124 0.03556,-0.0432 0.05852,-0.0582 0.03629,-0.0242 0.07803,-0.0393 0.117037,-0.0589 0.03901,-0.0392 0.07395,-0.0826 0.117037,-0.11704 0.460726,-0.36853 -0.151033,0.16644 0.409629,-0.23402 0.06734,-0.0484 0.117037,-0.11705 0.175556,-0.1756 0.05851,-0.0582 0.117037,-0.11705 0.175555,-0.17553 0.211865,-0.21185 0.248455,-0.22637 0.40963,-0.46818 0.06309,-0.0946 0.105726,-0.20281 0.175555,-0.29258 0.06774,-0.0871 0.162263,-0.15028 0.234074,-0.23408 0.04577,-0.0537 0.06731,-0.12581 0.117037,-0.17554 0.04973,-0.0497 0.120637,-0.0731 0.175556,-0.11704 0.04308,-0.0347 0.07802,-0.078 0.117037,-0.11704 0.0195,-0.0196 0.03901,-0.078 0.05851,-0.0582 0.0195,0.0196 -0.04322,0.0353 -0.05851,0.0582 -0.02419,0.036 -0.04232,0.0765 -0.05852,0.11704 -0.101294,0.25326 -0.01933,0.15571 -0.175555,0.46817 -0.05087,0.10174 -0.13181,0.18758 -0.175556,0.29258 -0.05462,0.13111 -0.06927,0.27589 -0.117037,0.40962 -0.04996,0.13988 -0.120384,0.27171 -0.175555,0.40962 -0.0619,0.15473 -0.119502,0.31123 -0.175556,0.46818 -0.109927,0.30775 -0.13968,0.37933 -0.175555,0.7022 -0.01118,0.10055 -0.0067,0.26411 0.05851,0.35113 0.02617,0.0347 0.08075,0.0347 0.117037,0.0582 0.02295,0.015 0.03234,0.0497 0.05851,0.0589 0.03701,0.0124 0.07803,0 0.117037,0 0.03901,0 0.07919,0.009 0.117037,0 0.04232,-0.0105 0.07803,-0.0393 0.117037,-0.0589 0.12155,-0.0608 0.174899,-0.0814 0.292592,-0.17553 0.04308,-0.0347 0.07802,-0.078 0.117037,-0.11704 0.05852,-0.0582 0.117037,-0.11705 0.175556,-0.17554 0.03901,-0.0392 0.08257,-0.074 0.117037,-0.11704 0.04393,-0.055 0.0731,-0.12064 0.117037,-0.1756 0.03447,-0.0432 0.08393,-0.0729 0.117037,-0.11698 0.02617,-0.0347 0.02767,-0.0862 0.05851,-0.11704 0.03084,-0.0308 0.08075,-0.0347 0.117037,-0.0582 0.02295,-0.015 0.03384,-0.0464 0.05851,-0.0582 0.01745,-0.009 0.03901,0 0.05852,0 0.0195,0 0.04472,-0.0137 0.05851,0 0.01379,0.0137 -0.0087,0.0412 0,0.0582 0.01234,0.0249 0.04322,0.0353 0.05852,0.0582 0.02419,0.036 0.03901,0.078 0.05851,0.11704 0.0195,0.0393 0.04794,0.0747 0.05852,0.11698 0.0095,0.038 -0.0076,0.0788 0,0.11705 0.0121,0.0602 0.03901,0.11704 0.05851,0.17559 0.07231,0.21695 0.03093,0.12038 0.117037,0.29258 0.0195,0.0393 0.03235,0.0822 0.05852,0.11705 0.0331,0.0438 0.07802,0.078 0.117037,0.11704 0.03901,0.0392 0.07802,0.078 0.117037,0.11704 0.03901,0.0393 0.0729,0.0839 0.117037,0.11705 0.151792,0.11383 0.09701,0.0196 0.292593,0.0582 0.379826,0.076 -0.130417,0.0582 0.234073,0.0582 0.0195,0 0.04107,0.009 0.05851,0 0.194082,-0.19405 -0.05517,0.0275 0.117038,-0.0582 0.02467,-0.0124 0.03384,-0.0464 0.05851,-0.0582 0.01745,-0.009 0.04107,0.009 0.05851,0 0.02467,-0.0124 0.03901,-0.0393 0.05852,-0.0589 0.0195,-0.0196 0.04618,-0.034 0.05852,-0.0582 0.0087,-0.0177 0,-0.0393 0,-0.0582"
         style="fill:none;stroke:#4e9a06;stroke-width:0.28024873px;stroke-linecap:butt;stroke-linejoin:miter;stroke-opacity:1" />
      <text
         sodipodi:linespacing="125%"
         id="text3725"
         y="989.5769"
         x="14.600067"
         style="font-size:3.37113857px;font-style:normal;font-variant:normal;font-weight:normal;font-stretch:normal;text-align:start;line-height:125%;writing-mode:lr-tb;text-anchor:start;fill:#4e9a06;fill-opacity:1;stroke:none;font-family:Nimbus Roman No9 L;-inkscape-font-specification:Nimbus Roman No9 L"
         xml:space="preserve"><tspan
           y="989.5769"
           x="14.600067"
           id="tspan3727"
           sodipodi:role="line">one thousand</tspan></text>
      <text
         sodipodi:linespacing="125%"
         id="text3729"
         y="992.37195"
         x="26.914598"
         style="font-size:21.51238251px;font-style:normal;font-variant:normal;font-weight:normal;font-stretch:normal;text-align:start;line-height:125%;writing-mode:lr-tb;text-anchor:start;fill:#4e9a06;fill-opacity:1;stroke:none;font-family:Nimbus Roman No9 L;-inkscape-font-specification:Nimbus Roman No9 L"
         xml:space="preserve"><tspan
           y="992.37195"
           x="26.914598"
           id="tspan3731"
           sodipodi:role="line">$</tspan></text>
    </g>
    <g
       transform="matrix(0.94011177,-0.34086635,0.34086635,0.94011177,-332.16357,63.674961)"
       id="g3733">
      <rect
         style="fill:#4e9a06;fill-opacity:1;stroke:none"
         id="rect3735"
         width="112.54813"
         height="42.179447"
         x="8.9787922"
         y="963.61829"
         ry="0" />
      <path
         style="fill:#73d216;fill-opacity:1;stroke:none"
         d="m 24.016151,975.10278 c 3.02647,-3.02647 2.920227,-9.60522 2.920227,-9.60522 l 89.576022,0 0,38.42084 c -31.807559,0 -66.480088,0 -95.422677,0 -0.520571,-2.6854 -1.250596,-3.1784 -2.711418,-4.5938 -1.460823,-1.41544 -4.384992,0.6941 -4.384992,-1.2528 0,-6.47349 0,-12.91087 0,-19.83686 0,0 6.996369,-0.10569 10.022838,-3.13216 z"
         id="path3737"
         sodipodi:nodetypes="ccccczscz" />
      <path
         sodipodi:type="arc"
         style="fill:#73d216;fill-opacity:1;stroke:#4e9a06"
         id="path3739"
         sodipodi:cx="62.955956"
         sodipodi:cy="62.642742"
         sodipodi:rx="14.303426"
         sodipodi:ry="14.40783"
         d="m 77.259381,62.642742 c 0,7.957225 -6.403862,14.40783 -14.303425,14.40783 -7.899564,0 -14.303426,-6.450605 -14.303426,-14.40783 0,-7.957225 6.403862,-14.40783 14.303426,-14.40783 7.899563,0 14.303425,6.450605 14.303425,14.40783 z"
         transform="matrix(1.3115942,0,0,1.3115942,-18.500793,902.65057)" />
      <g
         id="g3741"
         transform="matrix(0.8348615,0,0,0.8348615,25.13905,126.49693)">
        <path
           sodipodi:nodetypes="ccccc"
           id="path3743"
           d="m 42.597061,1031.4813 10.649266,0 c 0.02069,6.3167 -0.689346,12.8246 2.50571,16.496 -5.437732,0.6438 -10.965106,2.1839 -15.869495,-2.5057 3.4793,-4.3159 2.316852,-8.1336 2.714519,-13.9903 z"
           style="fill:#73d216;fill-opacity:1;stroke:#4e9a06;stroke-width:1;stroke-linecap:square;stroke-linejoin:miter;stroke-miterlimit:4;stroke-opacity:1;stroke-dashoffset:0" />
        <path
           sodipodi:nodetypes="csccsc"
           transform="translate(0,924.36218)"
           id="path3745"
           d="m 41.553018,86.8646 c -1.752114,-0.700845 14.082301,-4.598727 16.70473,8.143556 2.282684,11.091464 0.417619,14.616634 3.132138,13.572594 7.117899,-0.30944 -6.543934,7.31022 -5.637847,-0.83523 1.477267,-3.69884 -1.332189,-16.3331 -5.637847,-17.539973 -4.759063,-1.333963 -8.769983,-0.964383 -8.561174,-3.340947 z"
           style="fill:#4e9a06;stroke:#4e9a06;stroke-width:1px;stroke-linecap:butt;stroke-linejoin:miter;stroke-opacity:1" />
        <path
           sodipodi:nodetypes="csssc"
           id="path3747"
           d="m 56.796083,100.01958 c 0,6.45803 -2.316713,13.53331 -8.769983,13.7814 -5.088615,0.19563 -10.48599,-5.71906 -12.946167,-12.52855 -2.194382,-6.07379 3.564801,-12.946165 10.022839,-12.946165 6.458037,0 11.693311,5.235274 11.693311,11.693315 z"
           style="fill:#73d216;fill-opacity:1;stroke:#4e9a06;stroke-width:1;stroke-linecap:square;stroke-linejoin:miter;stroke-miterlimit:4;stroke-opacity:1;stroke-dashoffset:0"
           transform="translate(0,924.36218)" />
        <path
           sodipodi:nodetypes="csccsssc"
           transform="translate(0,924.36218)"
           id="path3749"
           d="m 48.652528,87.282219 c -0.826303,-4.133465 -8.788466,-2.828226 -14.40783,3.549755 -3.80796,4.322036 -3.857963,12.192926 -0.208809,15.451876 6.549913,8.63007 -1.600593,6.42527 -1.461664,7.09951 0,0 5.138248,6.46701 8.561175,2.50571 3.138415,-3.63204 0.305253,-5.65652 -2.296901,-7.93475 -4.172231,-3.65284 -4.359314,-14.475035 2.2969,-17.331155 3.400296,-1.459036 7.725938,-1.461664 7.517129,-3.340946 z"
           style="fill:#4e9a06;stroke:#4e9a06;stroke-width:1px;stroke-linecap:butt;stroke-linejoin:miter;stroke-opacity:1" />
      </g>
      <text
         xml:space="preserve"
         style="font-size:6.56455994px;font-style:normal;font-variant:normal;font-weight:normal;font-stretch:normal;text-align:start;line-height:100%;writing-mode:lr-tb;text-anchor:start;fill:#8ae234;fill-opacity:1;stroke:none;font-family:Nimbus Roman No9 L;-inkscape-font-specification:Nimbus Roman No9 L"
         x="10.887745"
         y="971.94995"
         id="text3751"
         sodipodi:linespacing="100%"><tspan
           sodipodi:role="line"
           id="tspan3753"
           x="10.887745"
           y="971.94995">1000</tspan></text>
      <path
         sodipodi:type="arc"
         style="fill:#4e9a06;fill-opacity:1;stroke:#4e9a06;stroke-width:1;stroke-linecap:square;stroke-linejoin:miter;stroke-miterlimit:4;stroke-opacity:1;stroke-dasharray:none;stroke-dashoffset:0"
         id="path3755"
         sodipodi:cx="-16.391518"
         sodipodi:cy="67.340942"
         sodipodi:rx="6.5774879"
         sodipodi:ry="10.336052"
         d="m -9.8140297,67.340942 c 0,5.708444 -2.9448413,10.336052 -6.5774883,10.336052 -3.632646,0 -6.577488,-4.627608 -6.577488,-10.336052 0,-5.708443 2.944842,-10.336052 6.577488,-10.336052 3.632647,0 6.5774883,4.627609 6.5774883,10.336052 z"
         transform="matrix(0,-1,1,0,29.859712,968.21209)" />
      <text
         sodipodi:linespacing="100%"
         id="text3757"
         y="987.36578"
         x="87.652473"
         style="font-size:9.13968563px;font-style:normal;font-variant:normal;font-weight:normal;font-stretch:normal;text-align:start;line-height:100%;writing-mode:lr-tb;text-anchor:start;fill:#8ae234;fill-opacity:1;stroke:none;font-family:Nimbus Roman No9 L;-inkscape-font-specification:Nimbus Roman No9 L"
         xml:space="preserve"><tspan
           y="987.36578"
           x="87.652473"
           id="tspan3759"
           sodipodi:role="line">1000</tspan></text>
      <path
         style="fill:none;stroke:#4e9a06;stroke-width:0.28024873px;stroke-linecap:butt;stroke-linejoin:miter;stroke-opacity:1"
         d="m 15.092,996.23407 c 0.03901,-0.0392 0.08257,-0.0739 0.117037,-0.11704 0.04393,-0.055 0.07616,-0.11829 0.117037,-0.17554 0.169572,-0.23735 0.36486,-0.45947 0.526666,-0.70219 0.06309,-0.0947 0.114492,-0.19667 0.175556,-0.29265 0.151035,-0.23729 0.320708,-0.46261 0.468148,-0.70219 0.247134,-0.40158 0.455088,-0.82729 0.702222,-1.22887 0.07372,-0.11979 0.166718,-0.22761 0.234074,-0.35113 0.06425,-0.11776 0.154844,-0.38168 0.175555,-0.52666 0.0083,-0.0582 0,-0.11704 0,-0.17553 0,-0.0393 0.02164,-0.0846 0,-0.11705 -0.05064,-0.076 -0.164014,-0.0589 -0.234074,-0.0589 -0.03901,0 -0.07878,-0.008 -0.117037,0 -0.06048,0.0124 -0.122662,0.0268 -0.175555,0.0589 -0.04731,0.0281 -0.07396,0.0826 -0.117037,0.11705 -0.01264,0.01 -0.347864,0.23016 -0.351111,0.23402 -0.05585,0.0671 -0.0708,0.16016 -0.117037,0.23409 -0.05169,0.0827 -0.117037,0.15603 -0.175556,0.23408 -0.05851,0.11705 -0.109623,0.23808 -0.175555,0.35113 -0.07088,0.1215 -0.171169,0.22526 -0.234074,0.35107 -0.07453,0.1491 -0.113659,0.31345 -0.175555,0.46818 -0.05517,0.13791 -0.120384,0.2717 -0.175556,0.40962 -0.167056,0.41766 -0.316337,0.83533 -0.351111,1.28741 -0.009,0.11672 0,0.23409 0,0.35113 0,0.1423 -0.03084,0.33406 0.05852,0.46811 0.03837,0.0576 0.190092,0.21702 0.292593,0.23409 0.07696,0.0131 0.156049,0 0.234074,0 0.05852,0 0.118784,0.0144 0.175555,0 0.101907,-0.0255 0.195061,-0.078 0.292592,-0.11704 0.09753,-0.0393 0.202518,-0.0628 0.292592,-0.11705 0.107102,-0.0641 0.191582,-0.16061 0.292593,-0.23408 0.113757,-0.0827 0.238582,-0.14963 0.351111,-0.23403 0.304714,-0.22852 0.381322,-0.3228 0.643703,-0.58521 0.210854,-0.21087 0.291395,-0.27413 0.468148,-0.52667 0.119648,-0.17089 0.308178,-0.48754 0.351111,-0.7022 0.0076,-0.0386 -0.01745,-0.0822 0,-0.11704 0.0087,-0.0177 0.05852,-0.0196 0.05852,0 0,0.0275 -0.04322,0.0353 -0.05852,0.0582 -0.04839,0.0726 -0.07216,0.15931 -0.117036,0.23409 -0.03619,0.0602 -0.08933,0.11089 -0.117038,0.17553 -0.04503,0.10507 -0.08926,0.43409 -0.117037,0.52666 -0.03019,0.10062 -0.0894,0.1913 -0.117037,0.29264 -0.03122,0.11443 -0.03729,0.23435 -0.05852,0.35107 -0.01779,0.0979 -0.03901,0.1951 -0.05851,0.29264 -0.03839,0.19196 -0.08631,0.3321 -0.05852,0.52667 0.0087,0.0608 0.03901,0.11704 0.05852,0.17553 0.0195,0.0582 0.02151,0.1262 0.05851,0.17553 0.02617,0.0347 0.07803,0.0393 0.117038,0.0589 0.03901,0.0196 0.07342,0.0582 0.117036,0.0582 0.06168,0 0.114711,-0.0484 0.175556,-0.0582 0.05772,-0.01 0.12004,0.0183 0.175556,0 0.06672,-0.0223 0.110911,-0.0894 0.175555,-0.11705 0.07392,-0.0314 0.160151,-0.0268 0.234074,-0.0589 0.06464,-0.0275 0.117037,-0.078 0.175556,-0.11698 0.117036,-0.0781 0.238581,-0.14969 0.35111,-0.23409 0.02828,-0.0209 0.122023,-0.17056 0.175556,-0.11704 0.02758,0.0275 -0.01744,0.0821 0,0.11704 0.194081,0.19405 -0.02758,-0.0549 0.05851,0.11705 0.01234,0.0249 0.03901,0.0393 0.05852,0.0582 0.0195,0.0196 0.03556,0.0432 0.05851,0.0589 0.03629,0.0242 0.08075,0.034 0.117037,0.0582 0.02295,0.015 0.03235,0.0497 0.05852,0.0582 0.03701,0.0124 0.07919,-0.009 0.117037,0 0.08463,0.0209 0.149444,0.0959 0.234074,0.11705 0.03785,0.009 0.07802,0 0.117037,0 0.05852,0 0.117037,0 0.175555,0 0.08875,0 0.38958,0.0131 0.468148,0 0.06085,-0.01 0.114711,-0.0484 0.175556,-0.0582 0.05772,-0.01 0.117037,0 0.175555,0 0.05852,0 0.117037,0 0.175556,0 0.04791,0 0.254677,-0.0124 0.292592,0 0.105915,-0.0353 0.108834,0.0948 0.175556,0.11704 0.03701,0.0124 0.08003,-0.0124 0.117037,0 0.02617,0.009 0.03556,0.0432 0.05852,0.0582 0.03629,0.0242 0.07802,0.0393 0.117036,0.0589 0.03901,0.0196 0.07427,0.0497 0.117037,0.0582 0.05738,0.0118 0.118174,-0.0118 0.175556,0 0.04277,0.009 0.07427,0.0497 0.117036,0.0589 0.05738,0.0111 0.117038,0 0.175556,0 0.05852,0 0.117037,0 0.175556,0 0.05852,0 0.117037,0 0.175555,0 0.03901,0 0.07878,0.008 0.117037,0 0.06048,-0.0124 0.117038,-0.0392 0.175555,-0.0589 0.22193,-0.074 0.270779,-0.10246 0.468148,-0.23409 0.05852,-0.0393 0.121527,-0.072 0.175556,-0.11704 0.182282,-0.15185 0.326327,-0.36304 0.409629,-0.58516 0.08691,-0.23173 0.05852,-0.32228 0.05852,-0.58515 0,-0.13654 0.0097,-0.27347 0,-0.40969 -0.0098,-0.13752 -0.04141,-0.27275 -0.05852,-0.40962 -0.02191,-0.17527 -0.03097,-0.35218 -0.05851,-0.52666 -0.03102,-0.19647 -0.07606,-0.39052 -0.117037,-0.58515 -0.08675,-0.41211 -0.115463,-0.61525 -0.292592,-0.99484 -0.0665,-0.1425 -0.151653,-0.2757 -0.234074,-0.40963 -0.211783,-0.34413 -0.241687,-0.40589 -0.585185,-0.6437 -0.37826,-0.2619 -0.486408,-0.25967 -0.936296,-0.40962 -0.698117,-0.23272 -0.357919,-0.16226 -1.111851,-0.23409 -0.214482,-0.0203 -0.429221,-0.038 -0.643703,-0.0582 -0.195152,-0.0183 -0.389151,-0.0589 -0.585185,-0.0589 -0.372834,0 -0.809296,0.0996 -1.170371,0.1756 -0.17598,0.0373 -0.356056,0.0602 -0.526666,0.11704 -0.337759,0.11253 -0.70578,0.32019 -0.994814,0.52667 -0.430818,0.30769 -0.822967,0.73929 -0.877778,1.28735 -0.0097,0.0971 -0.02116,0.19738 0,0.29264 0.01893,0.0851 0.0708,0.16009 0.117037,0.23402 0.146076,0.23376 0.205889,0.29042 0.468148,0.40969 0.285988,0.12993 0.44809,0.13386 0.760741,0.17553 0.433812,0.0576 0.543675,0.0835 0.994814,0.0582 0.176364,-0.01 0.350275,-0.0491 0.526667,-0.0582 0.665643,-0.0353 0.478409,0.053 1.111851,-0.0589 1.494098,-0.26366 -0.541152,-0.0111 0.936296,-0.11698 0.11835,-0.009 0.232869,-0.0484 0.351111,-0.0589 0.116632,-0.01 0.234073,0 0.351111,0 0.09753,0 0.195061,0 0.292592,0 0.07802,0 0.157111,-0.0131 0.234074,0 0.04302,0.007 0.07803,0.0392 0.117037,0.0589 0.14171,0.0709 0.0862,0.0275 0.175556,0.11698 0.0195,0.0196 0.04618,0.034 0.05852,0.0589 0.0087,0.0177 -0.0061,0.0399 0,0.0582 0.01379,0.0412 0.04472,0.0757 0.05851,0.11704 0.01635,0.0491 -0.01939,0.19529 0,0.23409 0.01234,0.0249 0.04979,0.0321 0.05851,0.0582 0.01234,0.0373 0,0.078 0,0.11704 0,0.0196 -0.0087,0.0412 0,0.0589 0.01234,0.0249 0.04618,0.034 0.05852,0.0582 0.0087,0.0177 -0.01379,0.0445 0,0.0589 0.01379,0.0137 0.04107,-0.008 0.05852,0 0.07022,0.0353 0.105333,0.1404 0.175555,0.17553 0.01744,0.009 0.04472,-0.0137 0.05851,0 0.01379,0.0137 -0.0087,0.0412 0,0.0582 0.03899,0.078 0.07804,0.0393 0.117037,0.11705 0.0087,0.0177 -0.0087,0.0412 0,0.0589 0.07147,0.14295 0.04557,-0.0262 0.117037,0.11704 0.0087,0.0177 -0.0087,0.0412 0,0.0582 0.01234,0.0249 0.04618,0.034 0.05852,0.0589 0.0087,0.0177 -0.0087,0.0412 0,0.0582 0.01234,0.0249 0.03901,0.0393 0.05852,0.0582 0.0195,0.0196 0.03235,0.0497 0.05852,0.0582 0.03701,0.0124 0.07803,0 0.117037,0 0.0195,0 0.04001,0.007 0.05851,0 0.04138,-0.0137 0.07472,-0.0478 0.117038,-0.0582 0.03785,-0.009 0.07919,0.009 0.117036,0 0.116212,-0.0288 0.234901,-0.14655 0.351112,-0.1756 0.03785,-0.009 0.08003,0.0124 0.117037,0 0.02617,-0.009 0.03384,-0.0464 0.05852,-0.0582 0.01201,-0.007 0.167302,-0.009 0.175555,0 0.01379,0.0137 0,0.0393 0,0.0582 0,0.0196 0.0087,0.0412 0,0.0589 -0.01234,0.0249 -0.04618,0.034 -0.05851,0.0582 -0.0025,0.007 -0.0025,0.22911 0,0.23408 0.01234,0.0249 0.03384,0.0465 0.05851,0.0582 0.01745,0.009 0.03901,0 0.05852,0 0.0195,0 0.03901,0 0.05851,0 0.03901,0 0.07803,0 0.117038,0 0.03901,0 0.07919,0.009 0.117037,0 0.04232,-0.0105 0.07654,-0.0425 0.117036,-0.0582 0.05727,-0.0229 0.120384,-0.0308 0.175556,-0.0589 0.06291,-0.0314 0.11265,-0.0856 0.175556,-0.11698 0.05517,-0.0275 0.118283,-0.0353 0.175555,-0.0582 0.156049,-0.0622 0.09851,-0.0782 0.292592,-0.11705 0.03825,-0.008 0.07919,0.009 0.117037,0 0.04232,-0.0105 0.07472,-0.0478 0.117037,-0.0582 0.05677,-0.0144 0.117038,0 0.175556,0 0.0195,0 0.04472,-0.0137 0.05852,0 0.01379,0.0137 -0.0087,0.0412 0,0.0582 0.06469,0.12941 0.03632,0.0183 0.117036,0.0589 0.02467,0.0124 0.03235,0.0497 0.05852,0.0582 0.03701,0.0124 0.07802,0 0.117037,0 0.117036,0 0.234074,0 0.351111,0 0.623083,0 -0.211538,0.015 0.526666,-0.0582 0.09705,-0.01 0.195658,0.0105 0.292593,0 0.07993,-0.009 0.155563,-0.0412 0.234073,-0.0589 0.09709,-0.0216 0.193739,-0.0478 0.292593,-0.0582 0.07755,-0.009 0.156049,0 0.234074,0 0.07802,0 0.156049,0 0.234074,0 0.122193,0 0.228917,0 0.351111,0 0.03901,0 0.07919,-0.009 0.117037,0 0.04232,0.0105 0.07472,0.0477 0.117037,0.0582 0.03785,0.009 0.08003,-0.0124 0.117037,0 0.05234,0.0177 0.06769,0.0924 0.117036,0.11705 0.01745,0.009 0.04001,-0.007 0.05852,0 0.04138,0.0137 0.07803,0.0393 0.117037,0.0582 0.09551,0.0478 0.184125,0.0989 0.292593,0.11698 0.05772,0.01 0.117832,-0.01 0.175555,0 0.118767,0.0196 0.232343,0.0973 0.35111,0.11705 0.05772,0.01 0.118174,-0.0111 0.175556,0 0.04277,0.008 0.07427,0.0497 0.117037,0.0589 0.05738,0.0111 0.118785,-0.0144 0.175556,0 0.02676,0.007 0.03235,0.0497 0.05851,0.0582 0.266394,0 0.0033,-0.0275 0.175556,0.0589 0.03489,0.0177 0.08945,-0.0275 0.117037,0 0.02758,0.0275 -0.01745,0.0821 0,0.11704 0.03922,0.0784 0.07782,0.0386 0.117037,0.11698 0.04036,0.0807 -0.07087,0.0523 0.05852,0.11704 0.01745,0.009 0.04472,-0.0137 0.05851,0 0.01379,0.0137 -0.01379,0.0445 0,0.0589 0.01379,0.0137 0.04107,-0.009 0.05852,0 0.02467,0.0124 0.03384,0.0465 0.05851,0.0582 0.01745,0.009 0.03901,0 0.05851,0 0.0195,0 0.04107,0.009 0.05852,0 0.02467,-0.0124 0.03556,-0.0432 0.05852,-0.0582 0.03629,-0.0242 0.07803,-0.0393 0.117037,-0.0589 0.03901,-0.0392 0.07395,-0.0826 0.117037,-0.11704 0.460726,-0.36853 -0.151033,0.16644 0.409629,-0.23402 0.06734,-0.0484 0.117037,-0.11705 0.175556,-0.1756 0.05851,-0.0582 0.117037,-0.11705 0.175555,-0.17553 0.211865,-0.21185 0.248455,-0.22637 0.40963,-0.46818 0.06309,-0.0946 0.105726,-0.20281 0.175555,-0.29258 0.06774,-0.0871 0.162263,-0.15028 0.234074,-0.23408 0.04577,-0.0537 0.06731,-0.12581 0.117037,-0.17554 0.04973,-0.0497 0.120637,-0.0731 0.175556,-0.11704 0.04308,-0.0347 0.07802,-0.078 0.117037,-0.11704 0.0195,-0.0196 0.03901,-0.078 0.05851,-0.0582 0.0195,0.0196 -0.04322,0.0353 -0.05851,0.0582 -0.02419,0.036 -0.04232,0.0765 -0.05852,0.11704 -0.101294,0.25326 -0.01933,0.15571 -0.175555,0.46817 -0.05087,0.10174 -0.13181,0.18758 -0.175556,0.29258 -0.05462,0.13111 -0.06927,0.27589 -0.117037,0.40962 -0.04996,0.13988 -0.120384,0.27171 -0.175555,0.40962 -0.0619,0.15473 -0.119502,0.31123 -0.175556,0.46818 -0.109927,0.30775 -0.13968,0.37933 -0.175555,0.7022 -0.01118,0.10055 -0.0067,0.26411 0.05851,0.35113 0.02617,0.0347 0.08075,0.0347 0.117037,0.0582 0.02295,0.015 0.03234,0.0497 0.05851,0.0589 0.03701,0.0124 0.07803,0 0.117037,0 0.03901,0 0.07919,0.009 0.117037,0 0.04232,-0.0105 0.07803,-0.0393 0.117037,-0.0589 0.12155,-0.0608 0.174899,-0.0814 0.292592,-0.17553 0.04308,-0.0347 0.07802,-0.078 0.117037,-0.11704 0.05852,-0.0582 0.117037,-0.11705 0.175556,-0.17554 0.03901,-0.0392 0.08257,-0.074 0.117037,-0.11704 0.04393,-0.055 0.0731,-0.12064 0.117037,-0.1756 0.03447,-0.0432 0.08393,-0.0729 0.117037,-0.11698 0.02617,-0.0347 0.02767,-0.0862 0.05851,-0.11704 0.03084,-0.0308 0.08075,-0.0347 0.117037,-0.0582 0.02295,-0.015 0.03384,-0.0464 0.05851,-0.0582 0.01745,-0.009 0.03901,0 0.05852,0 0.0195,0 0.04472,-0.0137 0.05851,0 0.01379,0.0137 -0.0087,0.0412 0,0.0582 0.01234,0.0249 0.04322,0.0353 0.05852,0.0582 0.02419,0.036 0.03901,0.078 0.05851,0.11704 0.0195,0.0393 0.04794,0.0747 0.05852,0.11698 0.0095,0.038 -0.0076,0.0788 0,0.11705 0.0121,0.0602 0.03901,0.11704 0.05851,0.17559 0.07231,0.21695 0.03093,0.12038 0.117037,0.29258 0.0195,0.0393 0.03235,0.0822 0.05852,0.11705 0.0331,0.0438 0.07802,0.078 0.117037,0.11704 0.03901,0.0392 0.07802,0.078 0.117037,0.11704 0.03901,0.0393 0.0729,0.0839 0.117037,0.11705 0.151792,0.11383 0.09701,0.0196 0.292593,0.0582 0.379826,0.076 -0.130417,0.0582 0.234073,0.0582 0.0195,0 0.04107,0.009 0.05851,0 0.194082,-0.19405 -0.05517,0.0275 0.117038,-0.0582 0.02467,-0.0124 0.03384,-0.0464 0.05851,-0.0582 0.01745,-0.009 0.04107,0.009 0.05851,0 0.02467,-0.0124 0.03901,-0.0393 0.05852,-0.0589 0.0195,-0.0196 0.04618,-0.034 0.05852,-0.0582 0.0087,-0.0177 0,-0.0393 0,-0.0582"
         id="path3761" />
      <text
         xml:space="preserve"
         style="font-size:3.37113857px;font-style:normal;font-variant:normal;font-weight:normal;font-stretch:normal;text-align:start;line-height:125%;writing-mode:lr-tb;text-anchor:start;fill:#4e9a06;fill-opacity:1;stroke:none;font-family:Nimbus Roman No9 L;-inkscape-font-specification:Nimbus Roman No9 L"
         x="14.600067"
         y="989.5769"
         id="text3763"
         sodipodi:linespacing="125%"><tspan
           sodipodi:role="line"
           id="tspan3765"
           x="14.600067"
           y="989.5769">one thousand</tspan></text>
      <text
         xml:space="preserve"
         style="font-size:21.51238251px;font-style:normal;font-variant:normal;font-weight:normal;font-stretch:normal;text-align:start;line-height:125%;writing-mode:lr-tb;text-anchor:start;fill:#4e9a06;fill-opacity:1;stroke:none;font-family:Nimbus Roman No9 L;-inkscape-font-specification:Nimbus Roman No9 L"
         x="26.914598"
         y="992.37195"
         id="text3767"
         sodipodi:linespacing="125%"><tspan
           sodipodi:role="line"
           id="tspan3769"
           x="26.914598"
           y="992.37195">$</tspan></text>
    </g>
  </g>
</svg>
