<?xml version="1.0" encoding="UTF-8" standalone="no"?>
<!-- Created with Inkscape (http://www.inkscape.org/) -->

<svg
   xmlns:dc="http://purl.org/dc/elements/1.1/"
   xmlns:cc="http://creativecommons.org/ns#"
   xmlns:rdf="http://www.w3.org/1999/02/22-rdf-syntax-ns#"
   xmlns:svg="http://www.w3.org/2000/svg"
   xmlns="http://www.w3.org/2000/svg"
   xmlns:xlink="http://www.w3.org/1999/xlink"
   xmlns:sodipodi="http://sodipodi.sourceforge.net/DTD/sodipodi-0.dtd"
   xmlns:inkscape="http://www.inkscape.org/namespaces/inkscape"
   width="1024"
   height="768"
   id="svg2"
   version="1.1"
   inkscape:version="0.47 r22583"
   sodipodi:docname="rob.svg">
  <defs
     id="defs4">
    <linearGradient
       id="linearGradient4050">
      <stop
         style="stop-color:#71746f;stop-opacity:1;"
         offset="0"
         id="stop4052" />
      <stop
         style="stop-color:#393b38;stop-opacity:1;"
         offset="1"
         id="stop4054" />
    </linearGradient>
    <linearGradient
       inkscape:collect="always"
       id="linearGradient4031">
      <stop
         style="stop-color:#1d1d1d;stop-opacity:1;"
         offset="0"
         id="stop4033" />
      <stop
         style="stop-color:#1d1d1d;stop-opacity:0;"
         offset="1"
         id="stop4035" />
    </linearGradient>
    <linearGradient
       id="linearGradient4002">
      <stop
         style="stop-color:#5d6a6e;stop-opacity:1;"
         offset="0"
         id="stop4004" />
      <stop
         style="stop-color:#2e3436;stop-opacity:1;"
         offset="1"
         id="stop4006" />
    </linearGradient>
    <linearGradient
       id="linearGradient3994">
      <stop
         style="stop-color:#1d1d1d;stop-opacity:1;"
         offset="0"
         id="stop3996" />
      <stop
         style="stop-color:#1d1d1d;stop-opacity:0;"
         offset="1"
         id="stop3998" />
    </linearGradient>
    <inkscape:perspective
       sodipodi:type="inkscape:persp3d"
       inkscape:vp_x="0 : 526.18109 : 1"
       inkscape:vp_y="0 : 1000 : 0"
       inkscape:vp_z="744.09448 : 526.18109 : 1"
       inkscape:persp3d-origin="372.04724 : 350.78739 : 1"
       id="perspective10" />
    <inkscape:perspective
       id="perspective3860"
       inkscape:persp3d-origin="0.5 : 0.33333333 : 1"
       inkscape:vp_z="1 : 0.5 : 1"
       inkscape:vp_y="0 : 1000 : 0"
       inkscape:vp_x="0 : 0.5 : 1"
       sodipodi:type="inkscape:persp3d" />
    <linearGradient
       y2="1039.6696"
       x2="47.9739"
       y1="1046.6051"
       x1="47.9739"
       gradientTransform="matrix(-0.77697789,0,0,-1.2032245,47.193094,2267.306)"
       gradientUnits="userSpaceOnUse"
       id="linearGradient4186"
       xlink:href="#linearGradient3997-0"
       inkscape:collect="always" />
    <linearGradient
       id="linearGradient3997-0">
      <stop
         style="stop-color:#555753;stop-opacity:1;"
         offset="0"
         id="stop3999-8" />
      <stop
         style="stop-color:#3f403d;stop-opacity:1;"
         offset="1"
         id="stop4001-7" />
    </linearGradient>
    <linearGradient
       inkscape:collect="always"
       xlink:href="#linearGradient3997-0"
       id="linearGradient4066-7"
       gradientUnits="userSpaceOnUse"
       gradientTransform="matrix(0.77697789,0,0,-1.2032245,17.224524,2260.3109)"
       x1="47.9739"
       y1="1046.6051"
       x2="47.9739"
       y2="1039.6696" />
    <linearGradient
       id="linearGradient3869">
      <stop
         style="stop-color:#555753;stop-opacity:1;"
         offset="0"
         id="stop3871" />
      <stop
         style="stop-color:#3f403d;stop-opacity:1;"
         offset="1"
         id="stop3873" />
    </linearGradient>
    <linearGradient
       y2="1039.6696"
       x2="47.9739"
       y1="1046.6051"
       x1="47.9739"
       gradientTransform="matrix(0.77697789,0,0,-1.2032245,17.224524,2260.3109)"
       gradientUnits="userSpaceOnUse"
       id="linearGradient3884"
       xlink:href="#linearGradient3997-0"
       inkscape:collect="always" />
    <filter
       inkscape:collect="always"
       id="filter3982">
      <feGaussianBlur
         inkscape:collect="always"
         stdDeviation="4.4670837"
         id="feGaussianBlur3984" />
    </filter>
    <radialGradient
       inkscape:collect="always"
       xlink:href="#linearGradient4002"
       id="radialGradient4008"
       cx="214.93205"
       cy="122.74071"
       fx="214.93205"
       fy="122.74071"
       r="154.23115"
       gradientTransform="matrix(0.03179406,0.25516252,-0.4736435,0.05901748,292.01349,133.23455)"
       gradientUnits="userSpaceOnUse" />
    <linearGradient
       inkscape:collect="always"
       xlink:href="#linearGradient4031"
       id="linearGradient4037"
       x1="687.81732"
       y1="378.36215"
       x2="685.31158"
       y2="379.61502"
       gradientUnits="userSpaceOnUse" />
    <radialGradient
       inkscape:collect="always"
       xlink:href="#linearGradient4050"
       id="radialGradient4056"
       cx="254.959"
       cy="543.86023"
       fx="254.959"
       fy="543.86023"
       r="286.26401"
       gradientTransform="matrix(0.97533394,0.22837068,-0.09798743,0.41848831,59.580298,305.19765)"
       gradientUnits="userSpaceOnUse" />
    <filter
       inkscape:collect="always"
       id="filter4106">
      <feGaussianBlur
         inkscape:collect="always"
         stdDeviation="2.6666028"
         id="feGaussianBlur4108" />
    </filter>
    <filter
       inkscape:collect="always"
       id="filter4110"
       x="-0.11609699"
       width="1.232194"
       y="-0.24380368"
       height="1.4876074">
      <feGaussianBlur
         inkscape:collect="always"
         stdDeviation="2.6666028"
         id="feGaussianBlur4112" />
    </filter>
    <filter
       inkscape:collect="always"
       id="filter4127">
      <feGaussianBlur
         inkscape:collect="always"
         stdDeviation="3.7763925"
         id="feGaussianBlur4129" />
    </filter>
    <filter
       inkscape:collect="always"
       id="filter4135"
       x="-0.068093621"
       width="1.1361872"
       y="-0.15434118"
       height="1.3086824">
      <feGaussianBlur
         inkscape:collect="always"
         stdDeviation="6.4008589"
         id="feGaussianBlur4137" />
    </filter>
  </defs>
  <sodipodi:namedview
     id="base"
     pagecolor="#ffffff"
     bordercolor="#666666"
     borderopacity="1.0"
     inkscape:pageopacity="0.0"
     inkscape:pageshadow="2"
     inkscape:zoom="0.79817708"
     inkscape:cx="512"
     inkscape:cy="384"
     inkscape:document-units="px"
     inkscape:current-layer="layer1"
     showgrid="false"
     inkscape:window-width="1440"
     inkscape:window-height="827"
     inkscape:window-x="0"
     inkscape:window-y="25"
     inkscape:window-maximized="1" />
  <metadata
     id="metadata7">
    <rdf:RDF>
      <cc:Work
         rdf:about="">
        <dc:format>image/svg+xml</dc:format>
        <dc:type
           rdf:resource="http://purl.org/dc/dcmitype/StillImage" />
        <dc:title></dc:title>
      </cc:Work>
    </rdf:RDF>
  </metadata>
  <g
     inkscape:label="Layer 1"
     inkscape:groupmode="layer"
     id="layer1"
     transform="translate(0,-284.36217)">
    <path
       style="fill:url(#radialGradient4056);fill-opacity:1;stroke:#2e3436;stroke-width:6.40296412000000004;stroke-linecap:square;stroke-linejoin:miter;stroke-miterlimit:4;stroke-opacity:1;stroke-dashoffset:0"
       d="m 368.96875,501.84375 c -156.33531,0 -283.0625,97.27239 -283.0625,217.28125 0,0.84375 0.01875,1.68977 0.03125,2.53125 152.27293,88.01255 272.88693,9.15738 566.0625,0 0.0125,-0.84148 0.0313,-1.6875 0.0313,-2.53125 0,-120.00886 -126.72719,-217.28125 -283.0625,-217.28125 z"
       transform="translate(0,284.36217)"
       id="path4041"
       sodipodi:nodetypes="csccsc" />
    <path
       style="fill:#e3a84c;fill-opacity:1;stroke:#e29b2e;stroke-width:4.62140179000000018;stroke-miterlimit:4;stroke-opacity:1;stroke-dasharray:none"
       d="m 254.13199,603.66069 187.82612,-7.96844 c -4.67236,55.09755 -20.24291,121.74456 15.28749,198.53421 -52.97162,62.66633 -172.33784,89.78346 -212.08792,11.83541 25.93286,-75.22551 26.95288,-107.35274 8.51513,-201.86233 0,-0.29852 0.20479,-0.53885 0.45918,-0.53885 z"
       id="rect3973"
       sodipodi:nodetypes="cccccc" />
    <path
       transform="translate(0,284.36217)"
       style="fill:#e9b96e;fill-opacity:1;stroke:#e29b2e;stroke-width:5;stroke-linecap:square;stroke-linejoin:miter;stroke-miterlimit:4;stroke-dashoffset:0;stroke-opacity:1"
       d="m 489.86623,243.05383 c 0,93.41091 -98.78149,196.69822 -183.54324,196.69822 -42.46187,0 -66.34495,-13.13702 -89.88931,-47.20852 -28.93279,-41.8692 -33.51689,-102.8735 -33.51689,-149.4897 0,-93.4109 68.71297,-169.135403 153.47472,-169.135403 84.76175,0 153.47472,75.724503 153.47472,169.135403 z"
       id="path3957"
       sodipodi:nodetypes="cssssc" />
    <path
       style="fill:#f2d6ab;fill-opacity:1;stroke:none;opacity:0.64912281000000005;filter:url(#filter3982)"
       d="m 303.58281,506.35374 c -39.69629,19.24215 -79.23793,5.46605 -88.31872,-30.7698 -9.0808,-36.23586 15.73795,-81.20965 55.43425,-100.45181 39.69628,-19.24217 79.23793,-5.46604 88.31873,30.7698 9.08079,36.23586 -15.73798,81.20966 -55.43426,100.45181 z"
       id="path3959"
       inkscape:transform-center-x="-17.148185"
       inkscape:transform-center-y="14.419331" />
    <path
       style="fill:#e3a84c;fill-opacity:1;stroke:none;opacity:0.63157894999999997;filter:url(#filter4106)"
       d="m 468.03711,463.97845 c -0.80585,19.15946 -84.76373,59.12487 -90.0168,76.74216 -19.60638,65.75417 -20.73561,114.35849 -84.42957,121.92597 -44.47037,-1.72098 -70.30674,-14.12168 -93.5027,-47.41466 7.7502,63.54627 41.08609,104.7716 108.51682,102.5311 62.93338,-2.09107 142.41745,-72.37787 163.98317,-147.79282 8.39267,-29.34901 11.63758,-82.78031 -4.55092,-105.99175 z"
       id="path3962"
       sodipodi:nodetypes="csccssc" />
    <path
       style="fill:#e3a84c;fill-opacity:1;stroke:none;opacity:0.63157894999999997;filter:url(#filter4110)"
       d="m 285.89637,553.77143 c -3.24141,7.92015 -13.91234,13.75 -26.5625,13.75 -11.32997,0 -21.04428,-4.68063 -25.28125,-11.34375 -0.66071,1.61232 -1.03125,3.30644 -1.03125,5.0625 0,10.37899 12.33998,18.78125 27.5625,18.78125 15.22252,0 27.5625,-8.40226 27.5625,-18.78125 0,-2.65296 -0.79543,-5.18027 -2.25,-7.46875 z"
       id="path3967" />
    <path
       style="fill:url(#radialGradient4008);stroke:url(#linearGradient4037);stroke-width:5;stroke-linecap:butt;stroke-linejoin:miter;stroke-opacity:1;stroke-miterlimit:4;stroke-dasharray:none;fill-opacity:1"
       d="m 258.84375,188.71875 c -28.12262,0.0208 -54.67695,4.5065 -73.17803,14.47964 -5.45913,18.78279 -6.28722,38.37152 -5.27178,59.3125 0,0 25.80296,12.2917 38.85606,10.61411 13.59956,-1.74782 19.93306,-19.21419 40.875,-19.34375 20.94193,-0.12956 26.43555,18.74274 38.78125,20.90625 37.4515,6.56315 99.04651,-12.42195 144.23506,-19.26229 18.66901,-2.82599 17.07516,-32.06185 25.53919,-27.69266 L 485.09375,220.75 c -47.73706,-3.70817 -148.49921,-32.08865 -226.25,-32.03125 z m -39.59375,35 c 11.9689,0 21.6875,6.49773 21.6875,14.53125 0,8.03354 -9.7186,14.5625 -21.6875,14.5625 -11.9689,0 -21.65625,-6.52896 -21.65625,-14.5625 0,-8.03352 9.68735,-14.53125 21.65625,-14.53125 z M 307,226 c 12.17139,0 22.0625,5.65705 22.0625,12.65625 0,6.9992 -9.89111,12.6875 -22.0625,12.6875 -12.1714,0 -22.03125,-5.6883 -22.03125,-12.6875 C 284.96875,231.65705 294.8286,226 307,226 z"
       transform="translate(0,284.36217)"
       id="path3976"
       sodipodi:nodetypes="cccssssccccsssccsssc" />
    <path
       sodipodi:nodetypes="ccccc"
       id="path4039"
       d="m 446.96953,703.43777 c 16.62617,6.23621 7.3199,27.78044 17.7932,93.2944 -52.97162,62.66633 -191.13066,94.79488 -230.88074,16.84683 -0.29408,-8.64119 9.80883,-69.0898 16.19764,-74.83523 42.44806,17.8635 114.85945,26.7056 196.8899,-35.306 z"
       style="fill:#555753;fill-opacity:1;stroke:#2e3436;stroke-width:4.62140179000000018;stroke-miterlimit:4;stroke-opacity:1;stroke-dasharray:none" />
    <path
       style="opacity:1;fill:#8f5902;fill-opacity:1;stroke:#6b4302;stroke-width:5;stroke-linecap:square;stroke-linejoin:miter;stroke-miterlimit:4;stroke-opacity:1;stroke-dasharray:none;stroke-dashoffset:0"
       d="m 309.35857,69.862658 c -80.0286,10.022839 -125.58378,71.698872 -129.45486,86.447292 -3.60636,10.14889 -6.85568,25.56845 14.04013,22.74119 3.40342,-0.46049 4.32837,-5.99825 6.78864,-9.83704 19.94704,-27.02405 54.74334,-41.75234 109.45502,-37.53787 38.32253,-0.69583 88.96058,-31.769525 91.87405,-19.74755 18.50077,76.34052 73.60873,37.61248 53.9697,99.79502 -9.0237,28.57152 9.76901,11.30126 -11.78781,54.85345 35.99162,-59.99042 41.63104,-15.54352 44.14866,4.38272 5.98239,-13.88097 6.40591,-38.46985 6.187,-46.7346 C 492.98154,163.912 468.14531,99.99745 415.72613,91.977425 384.13101,73.395476 344.19444,69.862658 309.35857,69.862658 z"
       transform="translate(0,284.36217)"
       id="path4114"
       sodipodi:nodetypes="ccsccssccscc" />
    <path
       sodipodi:nodetypes="csccssc"
       id="path4125"
       d="m 451.45364,553.9551 c -0.80585,19.15946 -41.65858,62.22268 -55.92198,77.24084 -41.34038,43.52795 -59.8725,48.72361 -109.23732,46.77308 -56.84693,-5.2581 -56.82886,0.79738 -90.58414,-62.00746 7.7502,63.54627 47.65285,107.69016 115.08358,105.44966 62.93338,-2.09107 147.80173,-71.84348 167.46582,-147.77647 6.4744,-25.00093 -29.35924,46.01317 -26.80596,-19.67965 z"
       style="opacity:0.25438597;fill:#3b2709;fill-opacity:1;stroke:none;filter:url(#filter4127)" />
    <path
       style="opacity:0.21491228000000001;fill:#3b2709;fill-opacity:1;stroke:none;filter:url(#filter4135)"
       d="m 441.88474,587.56327 c -19.64317,49.95997 -82.36074,57.84112 -120.57218,57.0757 -56.84693,-5.2581 -67.6037,24.86908 -101.35898,-37.93576 -4.47846,62.50923 23.99144,87.579 108.31155,78.63807 80.07969,-8.49129 130.38948,-34.04697 113.61961,-97.77801 z"
       id="path4133"
       sodipodi:nodetypes="cccsc"
       transform="matrix(0.54173607,0,0,-0.39404433,100.85596,875.68005)" />
  </g>
</svg>
